<svg width="22" height="18" viewBox="0 0 22 18" fill="none" xmlns="http://www.w3.org/2000/svg">
<path d="M9.49455 1.95682C9.08033 1.95682 8.74455 2.2926 8.74455 2.70682C8.74455 3.12103 9.08033 3.45682 9.49455 3.45682V1.95682ZM4.58606 10.5083C4.58606 10.094 4.25028 9.75826 3.83606 9.75826C3.42185 9.75826 3.08606 10.094 3.08606 10.5083H4.58606ZM15.5401 3.9577L14.8521 4.25628V4.25628L15.5401 3.9577ZM19.2161 15.7374L19.6574 16.3437L19.2161 15.7374ZM19.9051 15.047L19.298 14.6067L19.9051 15.047ZM16.0795 5.09644L15.9055 5.82598L16.0795 5.09644ZM15.9974 5.01154L16.6854 4.71297V4.71297L15.9974 5.01154ZM16.0205 5.05769L15.4202 5.50735L16.0205 5.05769ZM4.29506 14.8433L4.93486 14.4519L4.29506 14.8433ZM5.32335 15.8735L5.71576 15.2343L5.32335 15.8735ZM18.354 5.25405L18.1204 5.96672L18.354 5.25405ZM20.3455 7.24926L19.6326 7.48214L20.3455 7.24926ZM5.36475 1.66663C5.36475 1.25241 5.02896 0.916626 4.61475 0.916626C4.20054 0.916626 3.86475 1.25241 3.86475 1.66663H5.36475ZM3.86475 7.90778C3.86475 8.32199 4.20054 8.65778 4.61475 8.65778C5.02896 8.65778 5.36475 8.32199 5.36475 7.90778H3.86475ZM1.5 4.0372C1.08579 4.0372 0.75 4.37299 0.75 4.7872C0.75 5.20141 1.08579 5.5372 1.5 5.5372V4.0372ZM7.7295 5.5372C8.14372 5.5372 8.4795 5.20141 8.4795 4.7872C8.4795 4.37299 8.14372 4.0372 7.7295 4.0372V5.5372ZM14.5587 10.0922C14.5587 11.4028 13.4987 12.4628 12.194 12.4628V13.9628C14.3298 13.9628 16.0587 12.2286 16.0587 10.0922H14.5587ZM12.194 12.4628C10.8893 12.4628 9.82925 11.4028 9.82925 10.0922H8.32925C8.32925 12.2286 10.0582 13.9628 12.194 13.9628V12.4628ZM9.82925 10.0922C9.82925 8.78166 10.8893 7.72164 12.194 7.72164V6.22164C10.0582 6.22164 8.32925 7.95588 8.32925 10.0922H9.82925ZM12.194 7.72164C13.4987 7.72164 14.5587 8.78166 14.5587 10.0922H16.0587C16.0587 7.95588 14.3298 6.22164 12.194 6.22164V7.72164ZM13.6358 1.95682H9.49455V3.45682H13.6358V1.95682ZM9.13115 17.0833H14.8934V15.5833H9.13115V17.0833ZM21.25 10.7163V9.47648H19.75V10.7163H21.25ZM12.194 12.4628C10.8445 12.4628 9.82925 11.4477 9.82925 10.0922H8.32925C8.32925 12.2734 10.0134 13.9628 12.194 13.9628V12.4628ZM9.82925 10.0922C9.82925 8.73678 10.8445 7.72164 12.194 7.72164V6.22164C10.0134 6.22164 8.32925 7.911 8.32925 10.0922H9.82925ZM12.194 7.72164C13.5435 7.72164 14.5587 8.73678 14.5587 10.0922H16.0587C16.0587 7.911 14.3746 6.22164 12.194 6.22164V7.72164ZM14.5587 10.0922C14.5587 11.36 13.5273 12.4628 12.194 12.4628V13.9628C14.3907 13.9628 16.0587 12.1531 16.0587 10.0922H14.5587ZM16.6854 4.71297L16.2281 3.65913L14.8521 4.25628L15.3094 5.31011L16.6854 4.71297ZM4.58606 11.0284V10.5083H3.08606V11.0284H4.58606ZM13.6358 3.45682C13.9822 3.45682 14.1827 3.45782 14.3309 3.47379C14.3978 3.481 14.4343 3.4896 14.4532 3.49542C14.4689 3.50027 14.473 3.50329 14.474 3.50398L15.2975 2.25026C15.0331 2.07653 14.7566 2.01099 14.4916 1.98242C14.2447 1.95581 13.9499 1.95682 13.6358 1.95682V3.45682ZM16.2281 3.65913C16.1028 3.37047 15.9863 3.09942 15.8636 2.88334C15.7319 2.65155 15.5619 2.42393 15.2975 2.25026L14.474 3.50398C14.4751 3.50467 14.4795 3.50726 14.4904 3.51993C14.5034 3.53511 14.5258 3.5653 14.5592 3.62407C14.633 3.75399 14.714 3.93808 14.8521 4.25628L16.2281 3.65913ZM14.8934 17.0833C16.0447 17.0833 16.9684 17.0844 17.7046 17.0045C18.4549 16.923 19.0988 16.7503 19.6574 16.3437L18.7747 15.131C18.5145 15.3204 18.1651 15.4457 17.5427 15.5132C16.9063 15.5823 16.0781 15.5833 14.8934 15.5833V17.0833ZM19.75 10.7163C19.75 11.9031 19.749 12.7331 19.68 13.371C19.6125 13.995 19.4873 14.3456 19.298 14.6067L20.5123 15.4873C20.9178 14.928 21.0901 14.2835 21.1713 13.5323C21.251 12.795 21.25 11.8698 21.25 10.7163H19.75ZM19.6574 16.3437C19.9855 16.1049 20.274 15.8159 20.5123 15.4873L19.298 14.6067C19.152 14.8079 18.9754 14.9849 18.7747 15.131L19.6574 16.3437ZM16.131 4.34927C16.1234 4.34927 16.1212 4.34927 16.1199 4.34925C16.1187 4.34924 16.1241 4.34926 16.1325 4.34963C16.1503 4.35041 16.1959 4.35316 16.2535 4.3669L15.9055 5.82598C15.975 5.84255 16.033 5.84672 16.067 5.8482C16.0952 5.84944 16.1241 5.84927 16.131 5.84927V4.34927ZM15.3094 5.31011C15.3121 5.31644 15.3235 5.34295 15.3358 5.3683C15.3507 5.3988 15.3775 5.45031 15.4202 5.50735L16.6208 4.60804C16.6562 4.65531 16.6768 4.69586 16.6845 4.7118C16.6882 4.71938 16.6903 4.72422 16.6898 4.72315C16.6893 4.72199 16.6884 4.71988 16.6854 4.71297L15.3094 5.31011ZM16.2535 4.3669C16.4005 4.40197 16.5304 4.4874 16.6208 4.60804L15.4202 5.50735C15.5397 5.66682 15.7113 5.77967 15.9055 5.82598L16.2535 4.3669ZM3.08606 11.0284C3.08606 12.0354 3.08527 12.8432 3.14679 13.4914C3.20936 14.1507 3.34162 14.7219 3.65525 15.2346L4.93486 14.4519C4.7895 14.2143 4.69226 13.8995 4.64008 13.3497C4.58685 12.7888 4.58606 12.0644 4.58606 11.0284H3.08606ZM9.13115 15.5833C8.097 15.5833 7.37416 15.5825 6.81455 15.5292C6.26617 15.477 5.95252 15.3797 5.71576 15.2343L4.93094 16.5126C5.44319 16.8271 6.01384 16.9598 6.67231 17.0225C7.31955 17.0841 8.1261 17.0833 9.13115 17.0833V15.5833ZM3.65525 15.2346C3.97378 15.7554 4.41089 16.1934 4.93094 16.5126L5.71576 15.2343C5.39761 15.039 5.12999 14.7709 4.93486 14.4519L3.65525 15.2346ZM16.131 5.84927C17.3572 5.84927 17.7908 5.85868 18.1204 5.96672L18.5877 4.54138C17.9731 4.33986 17.2394 4.34927 16.131 4.34927V5.84927ZM21.25 9.47648C21.25 8.36566 21.2593 7.63143 21.0584 7.01638L19.6326 7.48214C19.7407 7.81299 19.75 8.24828 19.75 9.47648H21.25ZM18.1204 5.96672C18.8361 6.20138 19.398 6.76394 19.6326 7.48214L21.0584 7.01638C20.6757 5.8447 19.7583 4.9252 18.5877 4.54138L18.1204 5.96672ZM3.86475 1.66663V4.7872H5.36475V1.66663H3.86475ZM3.86475 4.7872V7.90778H5.36475V4.7872H3.86475ZM1.5 5.5372H4.61475V4.0372H1.5V5.5372ZM4.61475 5.5372H7.7295V4.0372H4.61475V5.5372Z" fill="#1976D2"/>
</svg>
