<svg width="28" height="28" viewBox="0 0 28 28" fill="none" xmlns="http://www.w3.org/2000/svg">
<path d="M17.8165 23.5033L15.6294 22.2264L13.4422 20.9496C13.2784 20.853 13.0931 20.8022 12.9047 20.8022C12.7162 20.8022 12.531 20.853 12.3672 20.9496L10.1814 22.2264L7.99554 23.5033C7.74294 23.6506 7.4443 23.688 7.16512 23.6074C6.88595 23.5267 6.64901 23.3347 6.50628 23.0733C6.44235 22.9553 6.39904 22.8266 6.37834 22.693C6.35791 22.5591 6.36089 22.4224 6.38714 22.2896L6.88333 19.7408L7.37953 17.1912C7.41807 17.0006 7.40828 16.8028 7.35109 16.6173C7.29391 16.4317 7.19128 16.2647 7.05324 16.1326L5.2052 14.3716L3.35784 12.6106C3.20224 12.464 3.09074 12.274 3.0367 12.0634C2.98267 11.8528 2.9884 11.6304 3.05321 11.4231C3.11801 11.2158 3.23914 11.0322 3.40208 10.8944C3.56501 10.7566 3.76283 10.6704 3.97183 10.6462L6.46498 10.3474L8.95747 10.0492C9.14455 10.0272 9.32296 9.95539 9.47538 9.84082C9.6278 9.72625 9.74904 9.57278 9.82733 9.39531L10.8705 7.0303L11.9143 4.66458C11.974 4.52872 12.0589 4.40639 12.1643 4.30461C12.2696 4.20283 12.3933 4.1236 12.5283 4.07146C12.6632 4.01932 12.8068 3.99529 12.9507 4.00076C13.0946 4.00623 13.2361 4.04108 13.367 4.10332C13.485 4.1597 13.5924 4.23711 13.6845 4.33203C13.7766 4.42732 13.8513 4.53901 13.9052 4.66177L14.949 7.02749L15.9922 9.3925C16.071 9.56957 16.1924 9.72269 16.3447 9.83718C16.497 9.95167 16.6752 10.0237 16.8621 10.0464L19.3552 10.3445L21.8477 10.6434C22.0566 10.6677 22.2543 10.7539 22.4173 10.8915C22.5802 11.0292 22.7014 11.2126 22.7665 11.4198C22.8315 11.627 22.8376 11.8492 22.784 12.0599C22.7305 12.2705 22.6195 12.4608 22.4644 12.6078" stroke="#1976D2" stroke-width="2" stroke-miterlimit="10" stroke-linecap="round"/>
<path d="M21.1055 14.957L21.1055 22" stroke="#1976D2" stroke-width="2" stroke-linecap="round"/>
<path d="M24.627 18.4785H17.5839" stroke="#1976D2" stroke-width="2" stroke-linecap="round"/>
</svg>
