<svg width="28" height="29" viewBox="0 0 28 29" fill="none" xmlns="http://www.w3.org/2000/svg">
<path d="M16.6056 4.87719L14.6895 8.40533C14.4937 8.74258 14.4264 9.15193 14.5025 9.54389C14.5786 9.93585 14.7917 10.2785 15.0954 10.4971L16.6498 11.6552C16.6206 11.756 16.5905 11.8604 16.5571 11.9704C15.8372 14.8024 14.3148 17.3037 12.2139 19.1062L11.9909 19.3151L10.9494 18.5377L10.4357 18.1551C10.1385 17.9254 9.77117 17.8353 9.41412 17.9046C9.05706 17.9739 8.73936 18.1969 8.53053 18.5248L6.26622 21.7904C6.05141 22.1137 5.9612 22.5181 6.01538 22.9149C6.06955 23.3117 6.26367 23.6685 6.55519 23.9071L7.73203 24.6789L7.74791 24.6521C8.11807 24.8599 8.51371 25.0065 8.92225 25.0875C9.29307 25.1611 9.67081 25.1825 10.0465 25.1513C12.9381 24.9183 15.2692 22.9329 18.0898 18.2965C21.9886 11.89 20.8611 7.64923 20.811 7.46621C20.6951 7.06786 20.534 6.68741 20.3315 6.33393C20.1105 5.94729 19.8401 5.59798 19.5289 5.29683L19.5397 5.2765L18.4924 4.39377C18.184 4.18183 17.8124 4.1137 17.4587 4.2043C17.1051 4.2949 16.7984 4.53685 16.6056 4.87719V4.87719Z" stroke="#1976D2" stroke-width="2" stroke-linejoin="round"/>
</svg>
