<svg width="22" height="22" viewBox="0 0 22 22" fill="none" xmlns="http://www.w3.org/2000/svg">
<path d="M10.9998 21.4538C16.7723 21.4538 21.4518 16.7743 21.4518 11.0018C21.4518 5.22932 16.7723 0.549805 10.9998 0.549805C5.22737 0.549805 0.547852 5.22932 0.547852 11.0018C0.547852 16.7743 5.22737 21.4538 10.9998 21.4538Z" fill="#F39A60"/>
<path d="M11 1.1C12.958 1.1 14.8721 1.68062 16.5002 2.76845C18.1282 3.85627 19.3971 5.40244 20.1464 7.21143C20.8957 9.02042 21.0918 11.011 20.7098 12.9314C20.3278 14.8518 19.3849 16.6158 18.0004 18.0004C16.6158 19.3849 14.8518 20.3278 12.9314 20.7098C11.011 21.0918 9.02041 20.8957 7.21143 20.1464C5.40244 19.3971 3.85632 18.1282 2.76849 16.5001C1.68067 14.8721 1.10004 12.958 1.10004 11C1.10004 8.37435 2.14302 5.85625 3.99963 3.99964C5.85624 2.14303 8.37436 1.1 11 1.1ZM11 0C8.82441 0 6.69767 0.645137 4.88873 1.85383C3.07979 3.06253 1.6699 4.78049 0.83734 6.79048C0.00477606 8.80047 -0.213074 11.0122 0.211363 13.146C0.635801 15.2798 1.68348 17.2398 3.22186 18.7782C4.76024 20.3165 6.72021 21.3642 8.854 21.7886C10.9878 22.2131 13.1995 21.9952 15.2095 21.1627C17.2195 20.3301 18.9375 18.9202 20.1462 17.1113C21.3549 15.3023 22 13.1756 22 11C21.9966 8.08367 20.8366 5.28778 18.7744 3.22562C16.7123 1.16347 13.9163 0.00344047 11 0Z" fill="white"/>
<path d="M17.2516 6.44691C16.4516 5.64691 14.8326 5.96791 13.7646 7.03591C12.7696 8.0359 12.4566 9.12691 12.9286 9.96791C12.9554 10.0145 12.9653 10.0689 12.9569 10.122C12.9486 10.1751 12.9224 10.2237 12.8826 10.2599L7.21659 15.4109C7.07603 15.5544 6.99822 15.7478 7.00028 15.9487C7.00235 16.1495 7.0841 16.3413 7.22758 16.4819C7.37106 16.6225 7.56451 16.7003 7.76536 16.6982C7.96621 16.6961 8.15806 16.6144 8.29862 16.4709L13.4416 10.8139C13.4783 10.7747 13.5271 10.7488 13.5802 10.7405C13.6333 10.7322 13.6876 10.7418 13.7346 10.7679C14.5756 11.2399 15.6706 10.9269 16.6656 9.9319C17.7336 8.8639 18.0536 7.24391 17.2546 6.44491L17.2516 6.44691Z" fill="white" stroke="white" stroke-width="0.182308" stroke-miterlimit="10"/>
<path d="M6.51684 5.50358C6.45413 5.56671 6.41894 5.65209 6.41894 5.74108C6.41894 5.83007 6.45413 5.91544 6.51684 5.97858L8.40881 7.87058C8.4954 7.95738 8.54406 8.07497 8.54406 8.19758C8.54406 8.32018 8.4954 8.43778 8.40881 8.52458C8.32201 8.61117 8.20445 8.6598 8.08184 8.6598C7.95924 8.6598 7.84162 8.61117 7.75482 8.52458L5.86486 6.63258C5.83382 6.60131 5.7969 6.5765 5.75622 6.55957C5.71555 6.54264 5.67192 6.53392 5.62786 6.53392C5.58381 6.53392 5.54018 6.54264 5.49951 6.55957C5.45883 6.5765 5.42191 6.60131 5.39087 6.63258L5.34082 6.68258C5.30952 6.71371 5.2847 6.75072 5.26776 6.79147C5.25081 6.83223 5.24212 6.87594 5.24212 6.92008C5.24212 6.96422 5.25081 7.00792 5.26776 7.04868C5.2847 7.08944 5.30952 7.12645 5.34082 7.15758L7.23187 9.04858C7.31846 9.13537 7.36706 9.25297 7.36706 9.37558C7.36706 9.49818 7.31846 9.61578 7.23187 9.70258C7.18904 9.74554 7.13812 9.77963 7.08209 9.80289C7.02606 9.82615 6.96599 9.83812 6.90533 9.83812C6.84467 9.83812 6.7846 9.82615 6.72857 9.80289C6.67254 9.77963 6.62168 9.74554 6.57885 9.70258L4.69482 7.81958C4.6345 7.75753 4.55297 7.72058 4.46655 7.71613C4.38013 7.71167 4.29519 7.74006 4.22882 7.79558C4.19429 7.82589 4.16636 7.86297 4.14672 7.90451C4.12709 7.94606 4.11618 7.99119 4.11468 8.03711C4.11318 8.08304 4.12112 8.12878 4.138 8.17152C4.15488 8.21425 4.18035 8.25307 4.21283 8.28558L6.32281 10.3966C6.62331 10.6934 7.01243 10.8841 7.43109 10.9398C7.84974 10.9956 8.27511 10.9134 8.64282 10.7056C8.68776 10.6795 8.7403 10.6697 8.79162 10.6777C8.84294 10.6857 8.88998 10.7111 8.92486 10.7496L13.8718 16.1916C14.0105 16.3192 14.1934 16.388 14.3818 16.3833C14.5703 16.3787 14.7496 16.3011 14.8819 16.1669C15.0142 16.0326 15.0892 15.8522 15.0911 15.6637C15.0929 15.4752 15.0215 15.2934 14.8918 15.1566L9.45886 10.2166C9.4206 10.1818 9.39532 10.135 9.38714 10.084C9.37896 10.0329 9.38834 9.98058 9.41381 9.93558C9.62221 9.56777 9.70494 9.14199 9.64935 8.72292C9.59376 8.30384 9.40291 7.91435 9.10583 7.61358L6.99487 5.50358C6.96369 5.47183 6.92647 5.44662 6.88543 5.4294C6.8444 5.41219 6.80035 5.40332 6.75586 5.40332C6.71136 5.40332 6.66731 5.41219 6.62628 5.4294C6.58524 5.44662 6.54802 5.47183 6.51684 5.50358Z" fill="white" stroke="white" stroke-width="0.182308" stroke-miterlimit="10"/>
</svg>
