<svg width="24" height="25" viewBox="0 0 24 25" fill="none" xmlns="http://www.w3.org/2000/svg">
<path d="M12 4.83331C7.6 4.83331 4 8.43331 4 12.8333C4 17.2333 7.6 20.8333 12 20.8333C16.4 20.8333 20 17.2333 20 12.8333C20 8.43331 16.4 4.83331 12 4.83331ZM15.4286 13.9762H12.5714C11.9429 13.9762 11.4286 13.4619 11.4286 12.8333V8.83331C11.4286 8.54759 11.7143 8.26188 12 8.26188C12.2857 8.26188 12.5714 8.54759 12.5714 8.83331V12.8333H15.4286C15.7143 12.8333 16 13.119 16 13.4047C16 13.6904 15.7143 13.9762 15.4286 13.9762Z" fill="#1976D2"/>
</svg>
