<?xml version="1.0" encoding="utf-8"?>
<!-- Generator: Adobe Illustrator 27.5.0, SVG Export Plug-In . SVG Version: 6.00 Build 0)  -->
<svg version="1.1" xmlns="http://www.w3.org/2000/svg" xmlns:xlink="http://www.w3.org/1999/xlink" x="0px" y="0px"
	 viewBox="0 0 750 500" style="enable-background:new 0 0 750 500;" xml:space="preserve">
<g id="BACKGROUND">
	<g>
		<rect style="fill:#397EA6;" width="750" height="500"/>
	</g>
</g>
<g id="OBJECTS">
	<rect x="221.295" y="281.294" style="fill:none;" width="307.41" height="69.164"/>
	<text transform="matrix(1 0 0 1 232.2697 289.6539)"><tspan x="0" y="0" style="fill:#2A2B29; font-family:'OpenSans'; font-size:11px;">Lorem ipsum dolor sit amet, consectetuer adipis </tspan><tspan x="14.372" y="15" style="fill:#2A2B29; font-family:'OpenSans'; font-size:11px;">cing elit, sed diam nonummy nibh euismod.</tspan></text>
	<g>
		<text transform="matrix(1 0 0 1 271.1284 231.6501)"><tspan x="0" y="0" style="fill:#F8F7D9;stroke:#2A2B29;stroke-width:11;stroke-linecap:round;stroke-linejoin:round;stroke-miterlimit:10; font-family:'SpicyRice-Regular'; font-size:37px; letter-spacing:2;">YOUR TITLE</tspan><tspan x="5.886" y="35" style="fill:#F8F7D9;stroke:#2A2B29;stroke-width:11;stroke-linecap:round;stroke-linejoin:round;stroke-miterlimit:10; font-family:'SpicyRice-Regular'; font-size:37px; letter-spacing:2;">GOES HERE</tspan></text>
	</g>
	<text transform="matrix(1 0 0 1 271.1284 231.6501)"><tspan x="0" y="0" style="fill:#F8F7D9; font-family:'SpicyRice-Regular'; font-size:37px; letter-spacing:2;">YOUR TITLE</tspan><tspan x="5.886" y="35" style="fill:#F8F7D9; font-family:'SpicyRice-Regular'; font-size:37px; letter-spacing:2;">GOES HERE</tspan></text>
	<g>
		<defs>
			<rect id="SVGID_1_" width="750" height="500"/>
		</defs>
		<clipPath id="SVGID_00000116194632579823913530000003208241220221328285_">
			<use xlink:href="#SVGID_1_"  style="overflow:visible;"/>
		</clipPath>
		<g style="clip-path:url(#SVGID_00000116194632579823913530000003208241220221328285_);">
			<path style="fill:#E84662;stroke:#2A2B29;stroke-width:2.6277;stroke-miterlimit:10;" d="M611.154,245.876
				c-3.452,5.026-4.031,11.064-5.099,17.594c-8.712,53.265-32.307,102.738-54.586,151.898c-2.229,4.919-4.479,10.503-2.552,15.547
				c1.154,3.019,3.639,5.304,6.101,7.398c26.862,22.847,61.145,36.824,96.324,39.27c7.609,0.529,15.597,0.458,22.392-3.004
				c5.465-2.784,9.669-7.528,13.277-12.487c6.217-8.543,11.056-18.006,15.469-27.606c11.731-25.523,20.633-52.345,26.491-79.817
				c3.291-15.436,5.631-31.232,4.49-46.974c-1.141-15.741-5.972-31.53-15.793-43.884c-10.391-13.072-25.8-21.548-41.966-25.735
				c-11.069-2.866-22.544-3.843-33.954-3.75c-9.945,0.08-18.957,0.947-26.943,7.575
				C613.313,243.139,612.121,244.468,611.154,245.876z"/>
			<path style="fill:#F8F7D9;stroke:#2A2B29;stroke-width:2.6277;stroke-miterlimit:10;" d="M620.388,296.913
				c-0.092,4.883,1.372,9.677,1.501,14.559c0.211,7.975-3.127,15.585-6.727,22.704c-2.173,4.298-4.443,9.61-1.789,13.629
				c1.914,2.899,5.909,3.874,9.29,3.077c3.381-0.797,6.239-3.032,8.728-5.455c6.352-6.184,11.019-13.905,14.83-21.909
				c2.367-4.972,4.451-10.158,5.18-15.616c0.728-5.459,0.001-11.259-2.922-15.926C640.908,279.886,620.703,280.128,620.388,296.913z
				"/>
			<path style="fill:#F8F7D9;stroke:#2A2B29;stroke-width:2.6277;stroke-miterlimit:10;" d="M674.835,304.005
				c-2.756,3.254-3.614,7.729-3.626,11.993c-0.013,4.264,0.715,8.506,0.684,12.77c-0.07,9.376-3.796,18.341-8.232,26.601
				c-1.069,1.992-2.221,4.215-1.659,6.405c0.596,2.321,3.054,3.801,5.446,3.929c2.393,0.128,4.709-0.828,6.818-1.965
				c4.014-2.164,7.633-5.056,10.628-8.493c2.21-2.536,4.074-5.354,5.816-8.233c3.79-6.266,7.068-12.982,8.29-20.202
				c1.125-6.643,0.563-17.322-4.26-22.702C689.945,298.756,679.554,298.431,674.835,304.005z"/>
			<path style="fill:#2A2B29;" d="M625.117,323.915c-0.238,1.082-0.408,2.394,0.416,3.134c0.981,0.88,2.543,0.24,3.589-0.561
				c3.142-2.403,9.777-12.634,4.481-15.941C627.694,306.858,625.777,320.914,625.117,323.915z"/>
			<path style="fill:#2A2B29;" d="M618.511,337.973c-0.203,0.925-0.309,2.019,0.351,2.697c0.49,0.503,1.29,0.607,1.963,0.407
				c0.673-0.2,1.241-0.656,1.74-1.151c1.702-1.686,2.821-3.949,3.127-6.325c0.309-2.403-1.242-4.525-3.464-2.788
				C620.12,332.46,619.061,335.462,618.511,337.973z"/>
			<path style="fill:#2A2B29;" d="M674.942,341.014c-0.071,0.998,0.052,2.253,0.986,2.611c0.792,0.303,1.633-0.269,2.258-0.842
				c2.359-2.162,4.237-4.845,5.459-7.802c0.722-1.747,1.222-3.657,0.913-5.522c-0.667-4.028-4.514-5.461-6.431-1.535
				C676.182,331.906,675.253,336.623,674.942,341.014z"/>
			<path style="fill:#2A2B29;" d="M668.868,352.331c-0.28,0.794-0.472,1.732-0.006,2.434c0.492,0.741,1.57,0.901,2.399,0.58
				c0.829-0.322,1.456-1.011,2.006-1.71c1.018-1.297,3.704-5.842,1.133-7.011C671.854,345.466,669.444,350.694,668.868,352.331z"/>
			
				<path style="fill:#57B793;stroke:#2A2B29;stroke-width:2.6277;stroke-linecap:round;stroke-linejoin:round;stroke-miterlimit:10;" d="
				M616.623,305.206c-1.114-4.44-1.741-9.087-0.97-13.599c0.771-4.512,3.078-8.899,6.876-11.455
				c5.54-3.728,12.873-3.378,18.748-0.639c10.001,4.662,12.394,15.066,14.004,24.963c0.169,1.036,0.277,2.206-0.37,3.032
				c-7.941-2.372-15.559-3.114-23.721-3.219C626.321,304.227,621.446,304.532,616.623,305.206z"/>
			
				<path style="fill:#57B793;stroke:#2A2B29;stroke-width:2.6277;stroke-linecap:round;stroke-linejoin:round;stroke-miterlimit:10;" d="
				M703.402,324.483c-0.188-7.661-0.944-15.615-4.851-22.207c-3.908-6.592-11.778-11.399-19.206-9.514
				c-3.933,0.998-7.134,3.853-9.078,7.353c-1.005,1.811-1.69,3.811-1.986,5.862c-0.462,3.195-0.198,3.392,2.695,4.286
				C682.483,313.821,693.26,317.806,703.402,324.483z"/>
			<g>
				<path style="fill:#2A2B29;" d="M632.184,412.32c-6.006-2.536-11.502-5.995-15.619-8.725
					c-8.451-5.603-19.067-13.441-26.19-24.401c-2.526-3.888-6.336-11.404-3.473-18.037c1.749-4.054,6.259-7.271,13.673-4.14
					c1.189,0.502,2.411,1.148,3.631,1.919c2.841,1.799,5.156,4,7.395,6.131c0.437,0.416,0.874,0.832,1.315,1.243
					c3.055,2.854,6.326,5.543,9.72,7.99c4.037,2.91,7.671,5.03,11.108,6.482c1.221,0.516,2.447,0.958,3.641,1.316
					c9.895,2.962,20.949,0.991,28.403-0.75l1.211-0.287c3.65-0.867,7.425-1.764,11.529-1.608c2.422,0.094,4.818,0.613,6.929,1.505
					c2.91,1.229,5.275,3.154,6.84,5.568c3.358,5.184,2.812,12.64-1.33,18.133c-2.963,3.927-7.407,6.849-13.589,8.933
					c-5.985,2.017-12.572,3.058-20.139,3.179c-6.935,0.112-12.981-0.586-18.483-2.132
					C636.607,414.034,634.396,413.254,632.184,412.32z"/>
			</g>
			<path style="fill:#F8F7D9;" d="M641.605,393.792c-0.105,0.541-0.207,1.121,0.011,1.627c0.256,0.594,0.881,0.927,1.47,1.192
				c2.012,0.902,4.146,1.532,6.326,1.867c0.492,0.076,1.027,0.129,1.46-0.117c0.528-0.299,0.738-0.941,0.905-1.525
				c0.865-3.034,1.731-6.068,2.596-9.102c0.613,2.676,0.495,5.515-0.338,8.13c-0.237,0.745-0.523,1.592-0.128,2.267
				c0.326,0.557,1.005,0.784,1.631,0.937c1.394,0.34,2.824,0.534,4.259,0.577c0.808,0.024,1.694-0.028,2.297-0.568
				c0.473-0.423,0.674-1.064,0.852-1.673c1.079-3.694,2.018-7.428,2.817-11.192c-0.071,3.181-0.142,6.361-0.213,9.542
				c-0.009,0.415-0.015,0.847,0.164,1.221c0.418,0.873,1.577,1.02,2.544,1.05c1.612,0.049,3.421,0.026,4.567-1.109
				c0.781-0.774,1.072-1.903,1.309-2.977c0.759-3.446,1.293-6.942,1.598-10.457c-7.839,0.134-15.678,0.268-23.516,0.402
				c-2.095,0.036-4.19,0.072-6.285,0.107c-2.397,0.041-3.473,0.67-3.705,2.996C642.01,389.163,642.061,391.451,641.605,393.792z"/>
			<g>
				<path style="fill:#F3BE48;" d="M655.813,422.693c-6.895,0-12.998-0.773-18.656-2.364c-2.383-0.669-4.829-1.53-7.271-2.561
					c-6.46-2.727-12.258-6.373-16.588-9.244c-8.928-5.919-20.165-14.235-27.881-26.107c-5.477-8.426-6.878-16.809-3.944-23.602
					c2.423-5.614,7.482-8.966,13.532-8.966c2.515,0,5.161,0.579,7.867,1.723c1.485,0.626,2.997,1.424,4.494,2.371
					c3.329,2.105,5.972,4.618,8.304,6.836c0.433,0.412,0.855,0.814,1.28,1.212c2.877,2.688,5.952,5.216,9.142,7.513
					c3.671,2.646,6.926,4.555,9.949,5.832c1.025,0.432,2.047,0.802,3.038,1.099c2.876,0.861,5.994,1.28,9.532,1.279
					c4.536,0,9.714-0.694,15.83-2.122l1.193-0.282c3.521-0.837,7.512-1.786,11.954-1.786c0.385,0,0.773,0.007,1.162,0.022
					c3.128,0.119,6.241,0.799,9.003,1.966c4.004,1.689,7.29,4.387,9.502,7.799c4.759,7.341,4.128,17.352-1.571,24.909
					c-3.701,4.907-9.072,8.497-16.42,10.975c-6.573,2.216-13.748,3.357-21.933,3.488c-0.511,0.009-1.015,0.013-1.517,0.013
					C655.815,422.693,655.815,422.693,655.813,422.693z M595.051,361.678c-1.338,0-2.178,0.562-2.722,1.822
					c-1.838,4.257,1.488,10.141,3.003,12.473c6.532,10.049,16.524,17.408,24.5,22.696c3.902,2.587,9.095,5.858,14.653,8.206
					c1.979,0.836,3.955,1.532,5.87,2.071c4.604,1.294,9.665,1.923,15.472,1.923c0.438,0,0.878-0.004,1.315-0.011
					c6.947-0.112,12.947-1.052,18.345-2.871c5.019-1.691,8.537-3.944,10.757-6.889c2.677-3.548,3.125-8.219,1.09-11.358
					c-0.919-1.418-2.363-2.572-4.178-3.337c-1.462-0.618-3.141-0.978-4.856-1.044c-0.237-0.009-0.474-0.013-0.711-0.013
					c-3.054,0-6.183,0.743-9.209,1.462l-1.249,0.295c-7.127,1.665-12.996,2.441-18.47,2.441c-4.655,0-9.02-0.601-12.974-1.784
					c-1.397-0.419-2.826-0.935-4.245-1.534c-3.85-1.625-7.862-3.958-12.265-7.13c-3.595-2.592-7.06-5.44-10.3-8.468
					c-0.452-0.422-0.901-0.849-1.35-1.276c-2.127-2.022-4.136-3.933-6.483-5.419c-0.935-0.592-1.893-1.1-2.773-1.471
					C597.04,361.941,595.956,361.678,595.051,361.678z"/>
				<path style="fill:#2A2B29;" d="M595.006,351.161c2.231,0,4.695,0.495,7.356,1.618c1.422,0.6,2.869,1.365,4.303,2.272
					c3.221,2.038,5.814,4.504,8.102,6.68c0.428,0.407,0.856,0.815,1.287,1.218c2.915,2.724,6.033,5.287,9.269,7.619
					c3.754,2.706,7.093,4.66,10.207,5.975c1.069,0.451,2.136,0.837,3.171,1.147c2.969,0.889,6.238,1.335,9.91,1.335
					c4.656,0,9.961-0.717,16.128-2.157l1.198-0.283c3.468-0.825,7.362-1.75,11.651-1.75c0.368,0,0.739,0.007,1.113,0.021
					c2.971,0.114,5.924,0.758,8.542,1.863c3.761,1.588,6.842,4.114,8.91,7.304c4.46,6.88,3.85,16.286-1.518,23.404
					c-3.536,4.689-8.701,8.13-15.79,10.52c-6.442,2.172-13.486,3.291-21.534,3.42c-0.502,0.008-0.999,0.012-1.493,0.012
					c-6.77,0-12.773-0.76-18.307-2.315c-2.333-0.655-4.727-1.499-7.115-2.507c-6.356-2.684-12.089-6.288-16.373-9.129
					c-8.821-5.848-19.92-14.058-27.505-25.729c-5.229-8.046-6.593-15.988-3.84-22.366
					C584.651,354.767,588.982,351.161,595.006,351.161 M655.828,412.183c0.445,0,0.891-0.004,1.336-0.011
					c6.349-0.102,12.727-0.911,18.743-2.94c4.345-1.465,8.625-3.682,11.386-7.343c2.761-3.661,3.638-9.016,1.144-12.864
					c-1.138-1.755-2.837-3.018-4.77-3.834c-1.668-0.704-3.511-1.076-5.316-1.145c-0.253-0.01-0.506-0.014-0.759-0.014
					c-3.633,0-7.211,0.964-10.759,1.792c-5.939,1.387-12.09,2.406-18.171,2.406c-4.266,0-8.498-0.501-12.597-1.729
					c-1.4-0.419-2.769-0.918-4.111-1.485c-4.261-1.799-8.245-4.275-12.007-6.987c-3.563-2.568-6.963-5.362-10.171-8.361
					c-2.574-2.405-5.05-4.962-8.027-6.845c-0.866-0.548-1.89-1.118-2.964-1.571c-1.235-0.522-2.536-0.888-3.734-0.888
					c-1.643,0-3.096,0.69-3.927,2.615c-1.897,4.395,0.744,10.072,3.108,13.709c6.208,9.552,15.381,16.781,24.875,23.076
					c4.737,3.14,9.648,6.117,14.869,8.322c1.962,0.828,3.968,1.548,6.025,2.126C645.135,411.654,650.49,412.183,655.828,412.183
					 M595.006,348.534L595.006,348.534c-6.493,0-12.141,3.739-14.74,9.759c-3.112,7.211-1.674,16.032,4.05,24.839
					c7.849,12.076,19.223,20.498,28.256,26.487c4.38,2.904,10.247,6.592,16.803,9.36c2.488,1.051,4.987,1.931,7.426,2.616
					c5.778,1.623,11.999,2.413,19.017,2.413c0.508,0,1.019-0.004,1.535-0.012c8.323-0.134,15.628-1.297,22.332-3.558
					c7.607-2.565,13.184-6.303,17.049-11.428c6.03-7.996,6.683-18.612,1.625-26.415c-2.355-3.633-5.845-6.502-10.092-8.295
					c-2.907-1.227-6.179-1.942-9.463-2.068c-0.408-0.016-0.813-0.023-1.214-0.023c-4.597,0-8.667,0.968-12.258,1.822l-1.194,0.282
					c-6.01,1.404-11.09,2.087-15.524,2.087c-3.409,0-6.404-0.401-9.157-1.224c-0.945-0.283-1.921-0.636-2.903-1.051
					c-2.93-1.237-6.101-3.097-9.693-5.686c-3.145-2.267-6.177-4.759-9.011-7.408c-0.409-0.383-0.817-0.77-1.224-1.157l-0.047-0.045
					c-2.376-2.26-5.068-4.821-8.508-6.997c-1.555-0.984-3.131-1.816-4.685-2.472C600.516,349.148,597.697,348.534,595.006,348.534
					L595.006,348.534z M655.828,409.555c-5.685,0-10.63-0.613-15.117-1.874c-1.858-0.522-3.781-1.201-5.714-2.017
					c-5.456-2.304-10.582-5.534-14.439-8.091c-7.87-5.218-17.724-12.469-24.124-22.317c-2.915-4.486-3.999-8.686-2.898-11.236
					c0.336-0.779,0.704-1.029,1.515-1.029c0.719,0,1.656,0.236,2.712,0.682c0.814,0.344,1.706,0.818,2.58,1.371
					c2.237,1.415,4.199,3.281,6.276,5.257c0.453,0.431,0.906,0.862,1.362,1.288c3.279,3.064,6.788,5.949,10.429,8.573
					c4.484,3.231,8.58,5.611,12.521,7.276c1.462,0.617,2.935,1.149,4.38,1.582c4.076,1.22,8.568,1.839,13.35,1.839
					c5.577,0,11.541-0.786,18.769-2.475c0.414-0.097,0.828-0.195,1.242-0.294c3.093-0.735,6.014-1.43,8.919-1.43
					c0.219,0,0.438,0.004,0.658,0.012c1.559,0.06,3.078,0.385,4.394,0.94c1.594,0.673,2.801,1.629,3.587,2.842
					c1.94,2.993,0.947,7.222-1.037,9.852c-2.055,2.726-5.368,4.831-10.127,6.435c-5.267,1.776-11.137,2.693-17.946,2.802
					C656.691,409.552,656.259,409.555,655.828,409.555L655.828,409.555z"/>
			</g>
			<g>
				<path style="fill:#F3BE48;stroke:#2A2B29;stroke-width:2.6277;stroke-miterlimit:10;" d="M619.943,222.283
					c-2.529-0.493-5.243-0.969-7.604,0.063c-2.984,1.304-4.562,4.802-4.425,8.055c0.136,3.254,1.678,6.284,3.479,8.998
					c3.144,4.735,7.19,8.87,11.857,12.116c4.544,3.16,9.629,5.46,14.789,7.463c18.45,7.16,38.292,10.714,58.08,10.402
					c6.804-0.107,13.738-0.699,20.009-3.34c6.271-2.642,11.851-7.621,13.789-14.143c0.65-2.188,0.867-4.593,0.045-6.722
					c-1.969-5.1-8.491-6.318-13.932-6.849C683.637,235.167,651.779,228.495,619.943,222.283z"/>
				<path style="fill:#F3BE48;stroke:#2A2B29;stroke-width:2.6277;stroke-miterlimit:10;" d="M644.852,203.896
					c1.828-2.368,3.711-4.787,6.245-6.377c2.534-1.59,5.896-2.207,8.523-0.775c4.358,2.374,5.279,9.309,10.095,10.506
					c1.923,0.478,3.937-0.166,5.763-0.934c6.397-2.691,12.604-7.108,19.514-6.456c7.453,0.704,13.077,7.205,16.27,13.976
					c4.712,9.995,5.877,21.619,3.241,32.35c-0.332,1.352-0.744,2.732-1.63,3.807c-1.116,1.354-2.829,2.044-4.492,2.603
					c-11.831,3.98-24.754,3.95-36.99,1.483c-12.236-2.467-23.879-7.282-35.112-12.725c-3.02-1.463-6.157-3.095-8-5.899
					c-3.671-5.585,1.603-9.074,4.173-13.374C636.255,215.722,640.319,209.768,644.852,203.896z"/>
				
					<path style="fill:#57B793;stroke:#2A2B29;stroke-width:2.6277;stroke-linecap:round;stroke-linejoin:round;stroke-miterlimit:10;" d="
					M677.774,233.471c7.925,1.535,16.01,2.653,24.057,2.006c5.555-0.447,11.042-1.739,16.213-3.818
					c0.608-0.244,1.397-0.465,1.841,0.018c0.228,0.248,0.276,0.607,0.314,0.942c0.623,5.521,1.134,11.516-1.783,16.244
					c-2.183,3.539-5.973,5.776-9.835,7.316c-13.828,5.512-29.464,3.615-43.938,0.139c-3.964-0.952-7.909-2.019-11.724-3.457
					c-4.079-1.537-7.987-3.492-11.826-5.556c-6.847-3.681-14.017-8.355-16.355-15.769c-0.148-0.468-0.275-0.956-0.228-1.445
					c0.06-0.616,0.389-1.167,0.71-1.696c1.507-2.478,4.303-10.12,7.843-9.688c1.771,0.216,4.538,2.4,6.265,3.15
					c2.508,1.089,5.045,2.111,7.606,3.07C657.046,228.714,667.365,230.803,677.774,233.471z"/>
			</g>
			<path style="fill:#F3BE48;stroke:#2A2B29;stroke-width:2.6277;stroke-miterlimit:10;" d="M619.098,461.915
				c6.141-1.967,13.48-3.743,18.526,0.271c0.559,0.445,1.088,0.979,1.305,1.66c0.386,1.21-0.314,2.499-1.154,3.452
				c-2.444,2.773-6.089,4.109-9.576,5.34c1.147,3.563,2.309,7.273,1.814,10.983c-0.495,3.71-3.161,7.416-6.883,7.813
				c-4.098,0.438-7.45-3.011-10.189-6.089c-4.043-4.543-8.271-8.921-12.671-13.12c-0.747-0.713-1.532-1.441-2.511-1.77
				c-0.956-0.321-1.993-0.228-2.999-0.153c-7.112,0.526-14.308-0.103-21.22-1.855c-1.547-0.392-3.16-0.888-4.248-2.056
				c-1.912-2.052-1.432-5.513,0.298-7.721c1.729-2.208,4.371-3.466,6.915-4.648c-0.789-2.167-1.589-4.401-1.51-6.706
				c0.079-2.305,1.247-4.728,3.382-5.599c3.159-1.29,6.521,1.218,8.85,3.712c5.268,5.64,8.301,12.004,12.354,18.401
				C603.404,469.865,613.762,463.624,619.098,461.915z"/>
			
				<path style="fill:none;stroke:#2A2B29;stroke-width:2.6277;stroke-linecap:round;stroke-linejoin:round;stroke-miterlimit:10;" d="
				M584.548,459.633c11.51,5.72,23.236,11.51,35.916,13.607"/>
			<g>
				
					<path style="fill:#57B793;stroke:#2A2B29;stroke-width:2.6277;stroke-linecap:round;stroke-linejoin:round;stroke-miterlimit:10;" d="
					M590.394,470.725c-0.931,2.046-0.979,3.873,1.207,5.131c1.015,0.584,2.361,0.646,3.334-0.004c0.158,1.044,0.85,1.95,1.701,2.574
					c0.852,0.624,1.856,1,2.859,1.33c1.707,0.561,2.912-1.103,3.744-2.399c1.691-2.636,3.298-5.327,4.817-8.065
					c0.905-1.632,3.033-5.007,1.798-6.9c-0.47-0.72-1.746-1.248-2.531-1.437c-0.478-0.115-3.396-0.206-3.565,0.455
					c0.182-0.709-0.002-1.502-0.478-2.059c-0.476-0.556-1.231-0.862-1.96-0.792c-0.736,0.07-1.388,0.487-1.996,0.907
					C595.45,462.14,592.327,466.474,590.394,470.725z"/>
				
					<path style="fill:none;stroke:#2A2B29;stroke-width:2.6277;stroke-linecap:round;stroke-linejoin:round;stroke-miterlimit:10;" d="
					M594.966,475.669c0.476-0.894,0.951-1.788,1.427-2.682c0.508-0.954,1.016-1.91,1.618-2.808c0.755-1.126,1.649-2.15,2.541-3.171"
					/>
			</g>
			
				<path style="fill:none;stroke:#2A2B29;stroke-width:2.6277;stroke-linecap:round;stroke-linejoin:round;stroke-miterlimit:10;" d="
				M652.954,461.128c-0.85,2.027-1.938,3.955-3.233,5.73"/>
			
				<path style="fill:none;stroke:#2A2B29;stroke-width:2.6277;stroke-linecap:round;stroke-linejoin:round;stroke-miterlimit:10;" d="
				M660.837,459.239c-1.696,4.035-3.585,7.988-5.658,11.843"/>
			
				<path style="fill:none;stroke:#2A2B29;stroke-width:2.6277;stroke-linecap:round;stroke-linejoin:round;stroke-miterlimit:10;" d="
				M608.117,302.979c9.474-3.656,19.916-4.769,29.947-3.19"/>
			
				<path style="fill:none;stroke:#2A2B29;stroke-width:2.6277;stroke-linecap:round;stroke-linejoin:round;stroke-miterlimit:10;" d="
				M687.92,312.162c9.062,2.528,17.388,7.639,23.744,14.575"/>
			
				<path style="fill:none;stroke:#2A2B29;stroke-width:2.6277;stroke-linecap:round;stroke-linejoin:round;stroke-miterlimit:10;" d="
				M690.251,356.898c-0.541,2.382-1.083,4.763-1.624,7.145"/>
			
				<path style="fill:none;stroke:#2A2B29;stroke-width:2.6277;stroke-linecap:round;stroke-linejoin:round;stroke-miterlimit:10;" d="
				M697.466,347.874c-1.644,6.574-3.247,13.158-4.807,19.753"/>
			
				<path style="fill:none;stroke:#2A2B29;stroke-width:2.6277;stroke-linecap:round;stroke-linejoin:round;stroke-miterlimit:10;" d="
				M692.797,249.203c-0.082,1.214-0.163,2.428-0.245,3.643"/>
			
				<path style="fill:none;stroke:#2A2B29;stroke-width:2.6277;stroke-linecap:round;stroke-linejoin:round;stroke-miterlimit:10;" d="
				M698.553,242.325c-0.13,4.043-0.259,8.086-0.389,12.129"/>
			
				<path style="fill:none;stroke:#2A2B29;stroke-width:2.6277;stroke-linecap:round;stroke-linejoin:round;stroke-miterlimit:10;" d="
				M704.996,242.037c-0.775,3.051-1.13,6.208-1.051,9.354"/>
			
				<path style="fill:none;stroke:#2A2B29;stroke-width:2.6277;stroke-linecap:round;stroke-linejoin:round;stroke-miterlimit:10;" d="
				M711.258,242.222c-0.081,2.043-0.161,4.087-0.242,6.13"/>
			
				<path style="fill:none;stroke:#2A2B29;stroke-width:2.6277;stroke-linecap:round;stroke-linejoin:round;stroke-miterlimit:10;" d="
				M589.213,396.374c-0.89,3.228-1.63,6.498-2.216,9.796"/>
			
				<path style="fill:none;stroke:#2A2B29;stroke-width:2.6277;stroke-linecap:round;stroke-linejoin:round;stroke-miterlimit:10;" d="
				M593.877,400.501c-1.122,4.885-2.024,9.82-2.7,14.786"/>
		</g>
		<g style="clip-path:url(#SVGID_00000116194632579823913530000003208241220221328285_);">
			<path style="fill:#57B793;stroke:#2A2B29;stroke-width:2;stroke-linecap:round;stroke-linejoin:round;stroke-miterlimit:10;" d="
				M735.405,458.294c-0.144-1.628-0.794-3.268-1.875-4.466c-8.502-10.606-13.68-13.644-13.68-13.644l-4.869,13.372
				c-0.26-0.379-0.54-0.756-0.859-1.085c-12.069-15.187-13.958-13.717-13.958-13.717l-1.928,18.315
				c8.735,18.235,23.828,27.642,23.828,27.642c5.138-5.535,9.203-12.061,11.907-19.112
				C734.868,463.261,735.626,460.788,735.405,458.294z"/>
			<path style="fill:#E84662;stroke:#2A2B29;stroke-width:2;stroke-miterlimit:10;" d="M718.457,439.366
				c2.332,0.91,3.732,3.439,3.953,5.933c0.221,2.494-0.537,4.967-1.433,7.305c-2.704,7.051-6.77,13.577-11.907,19.112
				c-4.237-4.375-7.891-9.315-10.834-14.647c-2.35-4.259-4.291-9.094-3.444-13.884c0.234-1.326,0.71-2.662,1.67-3.607
				c0.96-0.945,2.485-1.401,3.702-0.824c0.783,0.371,1.332,1.094,1.823,1.807c3.116,4.538,4.429,9.339,5.786,14.563
				C708.395,449.776,708.882,435.631,718.457,439.366z"/>
		</g>
		<g style="clip-path:url(#SVGID_00000116194632579823913530000003208241220221328285_);">
			<path style="fill:#F3BE48;stroke:#2A2B29;stroke-width:2.3722;stroke-miterlimit:10;" d="M637.581,30.768
				c-3.047,2.952-6.31,6.512-7.63,10.643c-1.357,4.249-0.291,10.555,0.893,14.818c1.093,3.936,3.319,7.717,6.81,9.84
				c1.68,1.021,3.713,1.735,4.697,3.437c1.389,2.4-0.007,5.394-1.389,7.798c-2.833,4.929-5.331,9.336-6.984,14.801
				c-2.354,7.784-4.51,15.637-6.97,23.38c-2.02,6.359,4.888,10.255,10.288,12.064c12.31,4.124,26.866,3.258,37.057-4.785
				c2.849-2.249,5.29-4.987,7.376-7.957c5.615-7.994,8.668-17.876,7.926-27.616c-0.524-6.872-2.992-13.617-7.114-19.148
				c-4.005-5.376-11.553-9.255-11.369-16.849c0.059-2.432,1.497-4.785,3.636-5.946c2.138-1.161,4.895-1.086,6.967,0.19
				c0.852-2.407-0.168-5.051-1.346-7.316c-2.067-3.975-4.686-7.661-7.74-10.938c-2.664-2.858-7.118-7.813-11.014-8.873
				c-3.546-0.964-9.166,1.996-12.269,3.641C645.047,24.262,641.116,27.342,637.581,30.768z"/>
			
				<path style="fill:#57B793;stroke:#2A2B29;stroke-width:2.3722;stroke-linecap:round;stroke-linejoin:round;stroke-miterlimit:10;" d="
				M662.911,17.182c-7.354,1.528-14.109,6.224-17.608,12.87c-3.499,6.646-3.459,15.165,0.575,21.5
				c2.23,3.502,5.505,6.226,7.859,9.645c3.239,4.704,4.558,10.45,5.422,16.095c0.813,5.312,1.237,10.969-1.004,15.853
				c-2.241,4.884-7.99,8.537-13.042,6.707c-1.261,8.232-2.205,16.512-2.83,24.816c-0.058,0.767-0.104,1.581,0.255,2.262
				c0.335,0.635,0.968,1.05,1.592,1.406c6.034,3.442,13.322,3.839,20.257,3.434c11.973-0.699,24.456-3.897,32.916-12.397
				c5.765-5.793,9.198-13.69,10.231-21.797c1.033-8.107-0.239-16.407-2.954-24.116c-1.208-3.432-2.716-6.792-4.878-9.719
				c-2.515-3.406-5.846-6.132-9.367-8.483c-2.033-1.358-4.171-2.616-6.522-3.288c-1.837-0.525-3.757-0.679-5.662-0.834
				c-2.957-0.242-6.324-0.727-7.963-3.2c-1.961-2.96,0.254-7.502,3.725-8.25c3.471-0.748,7.13,1.902,8.045,5.333
				c4.841-3.99,7.811-10.162,7.909-16.434C690.046,17.282,671.228,15.453,662.911,17.182z"/>
			<path style="fill:#F3BE48;stroke:#2A2B29;stroke-width:2.3722;stroke-miterlimit:10;" d="M588.531,47.893
				c-0.558,0.502-1.139,1.038-1.374,1.751c-0.253,0.769-0.058,1.605,0.134,2.391c8.899,36.297,11.782,73.747,15.901,110.892
				c0.087,0.784,0.189,1.607,0.65,2.247c0.597,0.828,1.651,1.161,2.631,1.445c3.527,1.02,6.987,3.111,10.475,2.624
				c1.481-9.229,5.809-17.314,9.051-26.08c3.242-8.767,5.531-18.408,3-27.405c7.393,0.377,17.687-2.431,23.294-7.512
				c1.583-1.434,2.852-3.175,4.109-4.902c2.906-3.993,5.958-8.503,5.399-13.41c-10.461-0.882-21.831-0.809-29.82-8.58
				c-3.17-3.083-4.73-8.358-2.207-11.989c0.536-0.771,1.251-1.445,2.128-1.78c0.773-0.295,1.627-0.311,2.449-0.214
				c3.611,0.423,6.626,2.844,9.422,5.167c2.772-4.907,1.328-11.57-2.76-15.449c-4.088-3.879-10.303-5.065-15.777-3.726
				c-2.809,0.687-5.785,1.971-8.461,0.876c-1.283-0.525-2.296-1.539-3.225-2.568c-1.646-1.824-3.149-3.777-4.489-5.836
				c-1.234-1.896-2.367-3.923-4.111-5.363C598.821,35.41,592.667,44.174,588.531,47.893z"/>
			
				<path style="fill:#57B793;stroke:#2A2B29;stroke-width:2.3722;stroke-linecap:round;stroke-linejoin:round;stroke-miterlimit:10;" d="
				M662.926,67.287c-2.282-8.404-6.113-16.752-12.878-22.236c-4.9-3.973-10.124-5.352-16.377-4.552
				c-2.908,0.372-5.761,1.202-8.411,2.458c-0.892,0.423-6.574,3.184-6.432,4.284c-0.566-4.385-1.564-8.713-2.975-12.903
				c-5.326,0.501-10.574,1.826-15.499,3.915c-0.496,0.21-1.017,0.452-1.305,0.907c-0.353,0.558-0.261,1.276-0.156,1.928
				c5.016,31.276,9.887,62.556,13.942,93.981c1.468,11.379,2.84,22.77,4.114,34.173c7.168-0.978,14.29-2.286,21.338-3.917
				c-1.182-19.78-3.857-39.471-7.996-58.849c4.835,2.289,13.489,1.064,18.569-0.362c5.899-1.656,10.96-6.304,13.497-11.83
				C666.19,85.934,665.333,76.155,662.926,67.287z M641.244,72.327c-0.376,1.273-0.925,2.61-2.06,3.298
				c-1.058,0.641-2.431,0.567-3.575,0.096c-2.006-0.826-3.413-2.741-4.092-4.801c-0.922-2.799-1.817-10.003,0.843-12.208
				c3.162-2.621,7.592,1.103,8.847,4.081C642.467,65.78,642.163,69.217,641.244,72.327z"/>
			<g>
				<path style="fill:#F3BE48;stroke:#2A2B29;stroke-width:2.3722;stroke-miterlimit:10;" d="M522.657,115.446
					c1.297,6.249,3.316,12.349,6.002,18.138c3.024,6.517,7.001,12.759,12.634,17.217c3.71,2.936,8.051,5.022,12.582,6.386
					c17.752,5.344,38.395-1.316,49.946-15.817c11.552-14.501,13.491-35.879,5.046-52.383c-5.811-11.357-15.793-20.052-26.458-27.052
					c-4.227-2.772-9.67-4.162-14.642-4.779c-0.554-0.069-1.129-0.125-1.66,0.049c-0.629,0.207-1.111,0.708-1.553,1.201
					c-1.904,2.123-3.597,4.435-5.045,6.892c-0.204,0.346-0.407,0.707-0.454,1.106c-0.064,0.553,0.18,1.09,0.412,1.597
					c1.523,3.332,2.743,6.801,3.642,10.353c0.738,2.916,0.767,5.919,1.207,8.907c1.061,7.208,1.312,14.535,0.741,21.798
					c-5.336-8.011-10.671-16.022-16.007-24.033c-2.589-3.887-7.559-14.475-12.753-15.179c-5.232-0.71-9.175,8.513-11.01,12.507
					C520.594,92.561,520.405,104.6,522.657,115.446z"/>
				
					<path style="fill:#57B793;stroke:#2A2B29;stroke-width:2.3722;stroke-linecap:round;stroke-linejoin:round;stroke-miterlimit:10;" d="
					M553.637,64.984c0.521,3.113,1.041,6.226,1.561,9.339c0.522,3.122,1.06,6.295,2.442,9.143c1.383,2.848,3.753,5.378,6.813,6.192
					c9.878,2.628,11.466-10.501,9.762-16.915c-1.527-5.747-5.065-10.758-9.017-15.202c6.493-2.803,13.136-5.259,19.89-7.355
					c1.859-0.577,3.9-1.122,5.708-0.397c1.412,0.566,2.419,1.809,3.362,3.003c8.85,11.218,17.805,22.756,22.422,36.279
					c4.617,13.522,4.178,29.623-4.692,40.826c-14.167,17.893-44.868,23.296-60.862,5.08c-2.195-2.5-4.016-5.307-5.681-8.188
					c-9.298-16.086-13.879-34.861-13.034-53.422c0.041-0.906,0.114-1.867,0.651-2.598c0.455-0.62,1.175-0.979,1.873-1.3
					c5.895-2.714,12.252-4.421,18.713-5.023C553.576,64.624,553.607,64.804,553.637,64.984z"/>
			</g>
			
				<path style="fill:none;stroke:#2A2B29;stroke-width:2.3722;stroke-linecap:round;stroke-linejoin:round;stroke-miterlimit:10;" d="
				M553.544,125.441c-8.176,8.037-16.353,16.074-24.529,24.111"/>
			
				<path style="fill:none;stroke:#2A2B29;stroke-width:2.3722;stroke-linecap:round;stroke-linejoin:round;stroke-miterlimit:10;" d="
				M557.813,133.877c-9.824,11.938-19.907,23.664-30.238,35.167"/>
			
				<path style="fill:none;stroke:#2A2B29;stroke-width:2.3722;stroke-linecap:round;stroke-linejoin:round;stroke-miterlimit:10;" d="
				M694.416,80.828c7.5,3.072,14.778,6.686,21.758,10.805"/>
			
				<path style="fill:none;stroke:#2A2B29;stroke-width:2.3722;stroke-linecap:round;stroke-linejoin:round;stroke-miterlimit:10;" d="
				M695.137,89.904c10.131,6.282,19.642,13.564,28.35,21.705"/>
		</g>
		<g style="clip-path:url(#SVGID_00000116194632579823913530000003208241220221328285_);">
			
				<ellipse transform="matrix(0.7579 -0.6524 0.6524 0.7579 3.8917 425.411)" style="fill:#57B793;stroke:#2A2B29;stroke-width:2;stroke-linecap:round;stroke-linejoin:round;stroke-miterlimit:10;" cx="575.073" cy="207.462" rx="30.318" ry="30.318"/>
			<path style="fill:none;stroke:#2A2B29;stroke-width:2;stroke-linecap:round;stroke-miterlimit:10;" d="M558.56,195.147
				c3.667,1.237,7.14,3.046,10.256,5.34"/>
			<path style="fill:none;stroke:#2A2B29;stroke-width:2;stroke-linecap:round;stroke-miterlimit:10;" d="M579.449,199.845
				c2.297-3.46,5.736-6.149,9.649-7.542"/>
			<g>
				<g>
					<path style="fill:#E84662;stroke:#2A2B29;stroke-width:2;stroke-miterlimit:10;" d="M556.284,228.072
						c-2.104,0-4.197-0.881-5.681-2.6c-2.706-3.137-2.358-7.872,0.777-10.578c3.956-3.414,9.388-5.212,16.146-5.344
						c1.771-0.028,3.463,0.031,5.099,0.093c2.288,0.088,4.449,0.171,6.38-0.046c5.002-0.559,9.86-3.498,12.677-7.672
						c2.316-3.433,6.977-4.34,10.412-2.021c3.434,2.317,4.339,6.979,2.022,10.412c-5.287,7.836-14.054,13.141-23.448,14.189
						c-3.044,0.339-5.874,0.23-8.612,0.127c-1.49-0.057-2.896-0.11-4.237-0.084c-3.121,0.061-5.417,0.649-6.636,1.701
						C559.765,227.472,558.02,228.072,556.284,228.072z"/>
				</g>
			</g>
			<path style="fill:#F8F7D9;stroke:#2A2B29;stroke-width:2;stroke-miterlimit:10;" d="M562.395,226.021
				c0.048,0.339,0.123,0.722,0.413,0.904c0.174,0.109,0.389,0.119,0.594,0.125c1.495,0.041,2.993-0.03,4.477-0.212
				c0.144-3.193,0.092-6.394-0.155-9.581c-0.033-0.427-5.914,0.083-6.361,1.106C560.683,219.917,562.155,224.313,562.395,226.021z"
				/>
			<path style="fill:#F8F7D9;stroke:#2A2B29;stroke-width:2;stroke-miterlimit:10;" d="M570.792,217.106
				c-0.001,3.128-0.002,6.257-0.002,9.385c0,0.176,0.005,0.366,0.113,0.504c0.14,0.178,0.397,0.203,0.624,0.211
				c1.659,0.063,3.319,0.069,4.978,0.02c0.253-3.312,0.399-6.632,0.437-9.953L570.792,217.106z"/>
			<path style="fill:none;stroke:#2A2B29;stroke-width:2;stroke-linecap:round;stroke-miterlimit:10;" d="M556.281,220.572
				c3.071-2.651,7.336-3.444,11.392-3.522c4.056-0.079,8.13,0.451,12.162,0.001c7.218-0.805,14.001-4.91,18.063-10.93"/>
		</g>
		<g style="clip-path:url(#SVGID_00000116194632579823913530000003208241220221328285_);">
			<g>
				<g>
					<path style="fill:#E84662;stroke:#2A2B29;stroke-width:2;stroke-miterlimit:10;" d="M358.779,472.892
						c-8.278,0-17.184-1.268-26.684-3.807c-6.614-1.767-12.975-3.934-19.126-6.029c-8.965-3.055-17.433-5.94-25.901-7.368
						c-13.601-2.297-25.528,0.259-31.906,6.834c-5.768,5.946-15.266,6.089-21.211,0.322c-5.946-5.769-6.09-15.265-0.322-21.211
						c13.452-13.866,34.752-19.525,58.434-15.527c10.856,1.833,20.884,5.249,30.582,8.553c5.942,2.024,11.556,3.938,17.195,5.444
						c10.503,2.806,25.239,4.886,35.796-1.146c7.041-4.022,11.853-11.977,11.972-19.793c0.117-7.725-4.433-15.5-11.065-18.908
						c-7.369-3.787-10.272-12.829-6.486-20.197c3.786-7.368,12.827-10.271,20.198-6.486c16.647,8.556,27.639,27.061,27.349,46.049
						c-0.279,18.33-10.911,36.145-27.086,45.385C381.321,470.26,370.702,472.892,358.779,472.892z"/>
				</g>
				<g>
					<circle style="fill:#F3BE48;stroke:#2A2B29;stroke-width:2;stroke-miterlimit:10;" cx="381.586" cy="386.083" r="15.952"/>
					<path style="fill:none;stroke:#2A2B29;stroke-width:2;stroke-linecap:round;stroke-miterlimit:10;" d="M375.428,377.163
						c1.619,1.234,3.046,2.721,4.213,4.389"/>
					<path style="fill:none;stroke:#2A2B29;stroke-width:2;stroke-linecap:round;stroke-miterlimit:10;" d="M385.05,383.023
						c1.728-1.338,3.895-2.099,6.08-2.135"/>
					<g>
						<g>
							
								<path style="fill:#57B793;stroke:#2A2B29;stroke-width:2;stroke-linecap:round;stroke-linejoin:round;stroke-miterlimit:10;" d="
								M385.335,398.436c-2.167-0.071-4.36-0.263-6.58-0.658c-4.715-0.841-11.336-3.003-16.107-8.531
								c-1.985-2.299-1.73-5.772,0.57-7.757c2.298-1.985,5.773-1.731,7.757,0.57c2.078,2.406,5.526,4.142,9.71,4.889
								c4.274,0.761,8.99,0.519,13.55,0.287c3.037-0.169,5.618,2.177,5.774,5.211c0.156,3.034-2.178,5.619-5.211,5.774
								C391.706,398.379,388.55,398.541,385.335,398.436z"/>
						</g>
						<path style="fill:none;stroke:#2A2B29;stroke-width:2;stroke-linecap:round;stroke-miterlimit:10;" d="M366.812,385.653
							c3.231,3.744,8.039,5.842,12.908,6.71c4.868,0.868,9.858,0.618,14.797,0.366"/>
					</g>
					<polygon style="fill:#F8F7D9;stroke:#2A2B29;stroke-width:2;stroke-linecap:round;stroke-miterlimit:10;" points="
						383.041,392.967 382.739,398.289 386.732,398.47 387.845,392.966 					"/>
				</g>
				<path style="fill:none;stroke:#2A2B29;stroke-width:2;stroke-linecap:round;stroke-linejoin:round;stroke-miterlimit:10;" d="
					M383.811,406.468c5.592,1.437,11.758,0.478,16.649-2.59"/>
				<path style="fill:none;stroke:#2A2B29;stroke-width:2;stroke-linecap:round;stroke-linejoin:round;stroke-miterlimit:10;" d="
					M386.814,412.132c5.696,1.369,11.729,1.311,17.397-0.166"/>
				<path style="fill:none;stroke:#2A2B29;stroke-width:2;stroke-linecap:round;stroke-linejoin:round;stroke-miterlimit:10;" d="
					M417.39,413.707c-4.546,4.235-10.779,6.607-16.99,6.466"/>
				<path style="fill:none;stroke:#2A2B29;stroke-width:2;stroke-linecap:round;stroke-linejoin:round;stroke-miterlimit:10;" d="
					M388.42,427.451c2.66,1.682,5.633,2.867,8.721,3.475"/>
				<path style="fill:none;stroke:#2A2B29;stroke-width:2;stroke-linecap:round;stroke-linejoin:round;stroke-miterlimit:10;" d="
					M402.854,432.554c1.159,0.237,2.343,0.35,3.526,0.336"/>
				<path style="fill:none;stroke:#2A2B29;stroke-width:2;stroke-linecap:round;stroke-linejoin:round;stroke-miterlimit:10;" d="
					M382.839,433.205c2.249,2.584,4.51,5.181,7.157,7.356c2.646,2.175,5.721,3.926,9.086,4.564"/>
				<path style="fill:none;stroke:#2A2B29;stroke-width:2;stroke-linecap:round;stroke-linejoin:round;stroke-miterlimit:10;" d="
					M371.507,440.774c0.669,4.338,2.33,8.52,4.819,12.136"/>
				<path style="fill:none;stroke:#2A2B29;stroke-width:2;stroke-linecap:round;stroke-linejoin:round;stroke-miterlimit:10;" d="
					M378.682,456.244c1.498,2.88,3.495,5.5,5.875,7.707"/>
				<path style="fill:none;stroke:#2A2B29;stroke-width:2;stroke-linecap:round;stroke-linejoin:round;stroke-miterlimit:10;" d="
					M357.604,443.535c-0.415,5.258-0.331,10.556,0.25,15.798"/>
				<path style="fill:none;stroke:#2A2B29;stroke-width:2;stroke-linecap:round;stroke-linejoin:round;stroke-miterlimit:10;" d="
					M358.745,462.798c0.091,1.59,0.487,3.162,1.16,4.605"/>
				<path style="fill:none;stroke:#2A2B29;stroke-width:2;stroke-linecap:round;stroke-linejoin:round;stroke-miterlimit:10;" d="
					M339.654,470.975c-1.221-5.619-1.626-11.415-1.196-17.149"/>
				<path style="fill:none;stroke:#2A2B29;stroke-width:2;stroke-linecap:round;stroke-linejoin:round;stroke-miterlimit:10;" d="
					M339.219,447.565c0.058-1.573,0.629-3.123,1.605-4.357"/>
				<path style="fill:none;stroke:#2A2B29;stroke-width:2;stroke-linecap:round;stroke-linejoin:round;stroke-miterlimit:10;" d="
					M322.198,434.857c-2.804,4.066-4.423,8.938-4.612,13.873"/>
				<path style="fill:none;stroke:#2A2B29;stroke-width:2;stroke-linecap:round;stroke-linejoin:round;stroke-miterlimit:10;" d="
					M317.174,452.719c-0.031,1.479-0.063,2.958-0.094,4.437"/>
				<path style="fill:none;stroke:#2A2B29;stroke-width:2;stroke-linecap:round;stroke-linejoin:round;stroke-miterlimit:10;" d="
					M313.085,438.839c-1.128,2.268-1.453,4.843-1.657,7.368c-0.238,2.94-0.335,5.892-0.29,8.841"/>
				<path style="fill:none;stroke:#2A2B29;stroke-width:2;stroke-linecap:round;stroke-linejoin:round;stroke-miterlimit:10;" d="
					M295.818,457.158c-0.982-5.256-1.171-10.658-0.558-15.97"/>
				<path style="fill:none;stroke:#2A2B29;stroke-width:2;stroke-linecap:round;stroke-linejoin:round;stroke-miterlimit:10;" d="
					M295.599,436.091c0.142-1.452,0.529-2.88,1.14-4.205"/>
				<path style="fill:none;stroke:#2A2B29;stroke-width:2;stroke-linecap:round;stroke-linejoin:round;stroke-miterlimit:10;" d="
					M279.057,425.324c-1,4.271-0.903,8.713-0.801,13.098"/>
				<path style="fill:none;stroke:#2A2B29;stroke-width:2;stroke-linecap:round;stroke-linejoin:round;stroke-miterlimit:10;" d="
					M278.376,442.629c0.159,1.956,0.258,3.917,0.295,5.879"/>
				<path style="fill:none;stroke:#2A2B29;stroke-width:2;stroke-linecap:round;stroke-linejoin:round;stroke-miterlimit:10;" d="
					M268.669,455.634c-1.528-0.767-2.546-2.256-3.406-3.733c-2.749-4.72-4.582-9.97-5.37-15.374"/>
				<path style="fill:none;stroke:#2A2B29;stroke-width:2;stroke-linecap:round;stroke-linejoin:round;stroke-miterlimit:10;" d="
					M255.85,461.342c-1.954-1.99-3.45-4.429-4.337-7.074"/>
				<path style="fill:none;stroke:#2A2B29;stroke-width:2;stroke-linecap:round;stroke-linejoin:round;stroke-miterlimit:10;" d="
					M246.598,442.31c0.996,2.881,2.211,5.687,3.631,8.385"/>
			</g>
			<path style="fill:none;stroke:#2A2B29;stroke-width:2;stroke-linecap:round;stroke-linejoin:round;stroke-miterlimit:10;" d="
				M416.184,451.991c6.142-8.056,9.992-17.839,10.988-27.92"/>
			<path style="fill:none;stroke:#2A2B29;stroke-width:2;stroke-linecap:round;stroke-linejoin:round;stroke-miterlimit:10;" d="
				M429.08,448.925c2.522-4.01,4.093-8.615,4.545-13.331"/>
		</g>
		<g style="clip-path:url(#SVGID_00000116194632579823913530000003208241220221328285_);">
			<g>
				
					<path style="fill:#57B793;stroke:#2A2B29;stroke-width:2;stroke-linecap:round;stroke-linejoin:round;stroke-miterlimit:10;" d="
					M694.385,156.708c0.144-1.628,0.794-3.268,1.875-4.466c8.502-10.606,13.68-13.643,13.68-13.643l4.869,13.371
					c0.26-0.379,0.54-0.756,0.859-1.085c12.069-15.187,13.958-13.717,13.958-13.717l1.928,18.315
					c-8.735,18.234-23.828,27.642-23.828,27.642c-5.138-5.535-9.203-12.061-11.907-19.112
					C694.922,161.676,694.164,159.202,694.385,156.708z"/>
				<path style="fill:#F3BE48;stroke:#2A2B29;stroke-width:2;stroke-miterlimit:10;" d="M711.334,137.781
					c-2.333,0.91-3.732,3.438-3.953,5.932c-0.221,2.494,0.537,4.967,1.433,7.305c2.704,7.051,6.77,13.577,11.907,19.112
					c4.237-4.375,7.891-9.315,10.834-14.648c2.35-4.259,4.291-9.094,3.444-13.884c-0.234-1.326-0.71-2.662-1.67-3.607
					c-0.96-0.945-2.485-1.401-3.702-0.825c-0.783,0.371-1.332,1.094-1.823,1.807c-3.116,4.538-4.429,9.339-5.786,14.563
					C721.395,148.191,720.908,134.046,711.334,137.781z"/>
			</g>
			<path style="fill:none;stroke:#2A2B29;stroke-width:2;stroke-linecap:round;stroke-linejoin:round;stroke-miterlimit:10;" d="
				M701.672,161.815c-6.616,4.266-13.232,8.532-19.848,12.798"/>
			<path style="fill:none;stroke:#2A2B29;stroke-width:2;stroke-linecap:round;stroke-linejoin:round;stroke-miterlimit:10;" d="
				M702.547,170.232c-6.521,4.985-13.041,9.969-19.561,14.954"/>
		</g>
		<g style="clip-path:url(#SVGID_00000116194632579823913530000003208241220221328285_);">
			<g>
				<path style="fill:#E84662;stroke:#2A2B29;stroke-width:2;stroke-miterlimit:10;" d="M504.043,50.11
					c-0.144-1.628-0.794-3.268-1.875-4.466C493.666,35.038,488.489,32,488.489,32l-4.869,13.372c-0.26-0.379-0.54-0.756-0.859-1.085
					c-12.069-15.187-13.958-13.717-13.958-13.717l-1.928,18.315c8.734,18.234,23.828,27.642,23.828,27.642
					c5.138-5.535,9.203-12.061,11.907-19.112C503.507,55.077,504.264,52.604,504.043,50.11z"/>
				<path style="fill:#F3BE48;stroke:#2A2B29;stroke-width:2;stroke-miterlimit:10;" d="M487.095,31.182
					c2.333,0.91,3.732,3.439,3.953,5.933c0.221,2.494-0.537,4.967-1.433,7.305c-2.704,7.051-6.77,13.577-11.907,19.112
					c-4.237-4.375-7.891-9.315-10.834-14.647c-2.35-4.259-4.291-9.094-3.444-13.884c0.234-1.326,0.71-2.662,1.67-3.607
					c0.96-0.945,2.485-1.401,3.702-0.824c0.783,0.371,1.332,1.093,1.823,1.807c3.116,4.537,4.428,9.338,5.786,14.563
					C477.033,41.592,477.52,27.447,487.095,31.182z"/>
			</g>
			<path style="fill:none;stroke:#2A2B29;stroke-width:2;stroke-linecap:round;stroke-linejoin:round;stroke-miterlimit:10;" d="
				M493.597,59.918c4.619,4.469,9.238,8.938,13.857,13.407"/>
			<path style="fill:none;stroke:#2A2B29;stroke-width:2;stroke-linecap:round;stroke-linejoin:round;stroke-miterlimit:10;" d="
				M494.408,49.571c4.727,4.508,9.454,9.017,14.18,13.525"/>
		</g>
		<g style="clip-path:url(#SVGID_00000116194632579823913530000003208241220221328285_);">
			<g>
				<path style="fill:#F3BE48;stroke:#2A2B29;stroke-width:2;stroke-miterlimit:10;" d="M182.707,194.793
					c0.144-1.628,0.794-3.268,1.875-4.466c8.502-10.606,13.679-13.644,13.679-13.644l4.869,13.372
					c0.26-0.379,0.54-0.756,0.859-1.085c12.069-15.187,13.958-13.717,13.958-13.717l1.928,18.315
					c-8.735,18.234-23.829,27.642-23.829,27.642c-5.137-5.535-9.203-12.061-11.907-19.112
					C183.243,199.761,182.486,197.287,182.707,194.793z"/>
				<path style="fill:#E84662;stroke:#2A2B29;stroke-width:2;stroke-miterlimit:10;" d="M199.655,175.866
					c-2.333,0.91-3.732,3.439-3.953,5.933c-0.221,2.494,0.537,4.967,1.433,7.305c2.704,7.051,6.77,13.577,11.907,19.112
					c4.237-4.375,7.891-9.315,10.834-14.647c2.35-4.259,4.291-9.094,3.444-13.884c-0.234-1.326-0.71-2.662-1.67-3.607
					c-0.96-0.945-2.485-1.401-3.702-0.825c-0.783,0.371-1.332,1.094-1.823,1.807c-3.116,4.538-4.429,9.339-5.786,14.563
					C209.717,186.276,209.23,172.131,199.655,175.866z"/>
			</g>
			<path style="fill:none;stroke:#2A2B29;stroke-width:2;stroke-linecap:round;stroke-linejoin:round;stroke-miterlimit:10;" d="
				M191.869,202.088c0,13.523,0,27.047,0,40.57"/>
			<path style="fill:none;stroke:#2A2B29;stroke-width:2;stroke-linecap:round;stroke-linejoin:round;stroke-miterlimit:10;" d="
				M198.407,210.356c0,0.123,0,0.245,0,0.368v22.433"/>
		</g>
		<g style="clip-path:url(#SVGID_00000116194632579823913530000003208241220221328285_);">
			<g>
				<path style="fill:#F3BE48;stroke:#2A2B29;stroke-width:2;stroke-miterlimit:10;" d="M257.807,45.798
					c0.144-1.628,0.794-3.268,1.875-4.466c8.502-10.606,13.68-13.643,13.68-13.643l4.869,13.372c0.26-0.379,0.54-0.756,0.859-1.085
					c12.069-15.187,13.958-13.717,13.958-13.717l1.928,18.315c-8.735,18.234-23.828,27.642-23.828,27.642
					c-5.138-5.535-9.203-12.061-11.907-19.112C258.344,50.766,257.586,48.292,257.807,45.798z"/>
				
					<path style="fill:#57B793;stroke:#2A2B29;stroke-width:2;stroke-linecap:round;stroke-linejoin:round;stroke-miterlimit:10;" d="
					M274.755,26.871c-2.333,0.91-3.732,3.439-3.953,5.933c-0.221,2.494,0.537,4.967,1.433,7.305
					c2.704,7.051,6.77,13.577,11.907,19.112c4.237-4.375,7.891-9.315,10.834-14.647c2.35-4.259,4.291-9.094,3.444-13.884
					c-0.234-1.326-0.71-2.662-1.67-3.607c-0.96-0.945-2.485-1.401-3.702-0.824c-0.783,0.371-1.332,1.094-1.823,1.807
					c-3.116,4.538-4.428,9.338-5.786,14.563C284.817,37.281,284.33,23.136,274.755,26.871z"/>
			</g>
			
				<line style="fill:none;stroke:#2A2B29;stroke-width:2;stroke-linecap:round;stroke-linejoin:round;stroke-miterlimit:10;" x1="261.3" y1="46.853" x2="261.3" y2="10.081"/>
			<path style="fill:none;stroke:#2A2B29;stroke-width:2;stroke-linecap:round;stroke-linejoin:round;stroke-miterlimit:10;" d="
				M266.078,15.182c0.066,0.133,0.133,0.266,0.199,0.398V44.85"/>
		</g>
		<g style="clip-path:url(#SVGID_00000116194632579823913530000003208241220221328285_);">
			<g>
				<path style="fill:#F3BE48;stroke:#2A2B29;stroke-width:2;stroke-miterlimit:10;" d="M741.068,33.117
					c-0.144-1.628-0.794-3.268-1.875-4.466c-8.502-10.606-13.679-13.643-13.679-13.643l-4.869,13.372
					c-0.26-0.379-0.54-0.756-0.859-1.085c-12.069-15.187-13.958-13.717-13.958-13.717l-1.928,18.315
					c8.734,18.234,23.828,27.642,23.828,27.642c5.137-5.535,9.203-12.061,11.907-19.112
					C740.532,38.084,741.289,35.611,741.068,33.117z"/>
				
					<path style="fill:#57B793;stroke:#2A2B29;stroke-width:2;stroke-linecap:round;stroke-linejoin:round;stroke-miterlimit:10;" d="
					M724.12,14.189c2.333,0.91,3.732,3.439,3.953,5.933c0.221,2.494-0.537,4.967-1.433,7.305
					c-2.704,7.051-6.77,13.577-11.907,19.112c-4.237-4.375-7.891-9.315-10.834-14.648c-2.35-4.259-4.291-9.094-3.444-13.884
					c0.234-1.326,0.711-2.662,1.67-3.607c0.96-0.945,2.485-1.401,3.702-0.824c0.783,0.371,1.332,1.093,1.823,1.807
					c3.116,4.538,4.428,9.338,5.786,14.563C714.058,24.6,714.545,10.454,724.12,14.189z"/>
			</g>
			
				<line style="fill:none;stroke:#2A2B29;stroke-width:2;stroke-linecap:round;stroke-linejoin:round;stroke-miterlimit:10;" x1="737.575" y1="34.171" x2="737.575" y2="-2.601"/>
			<path style="fill:none;stroke:#2A2B29;stroke-width:2;stroke-linecap:round;stroke-linejoin:round;stroke-miterlimit:10;" d="
				M732.797,2.501c-0.066,0.133-0.133,0.265-0.199,0.398v29.269"/>
		</g>
		<g style="clip-path:url(#SVGID_00000116194632579823913530000003208241220221328285_);">
			<g>
				<g>
					<path style="fill:#F3BE48;stroke:#2A2B29;stroke-width:2;stroke-miterlimit:10;" d="M312.713,141.484
						c-2.144,0-4.292-0.258-6.414-0.79c-8.035-2.017-12.914-10.165-10.897-18.2c1.911-7.616,9.329-12.392,16.943-11.157
						c0.403-0.311,0.951-0.863,1.331-1.566c1.518-2.807,2.195-7.168,2.912-11.786c0.188-1.208,0.375-2.414,0.578-3.611
						c1.44-8.524,3.694-16.958,6.7-25.068c5.281-14.242,12.19-24.668,21.124-31.873c13.154-10.607,30.587-13.299,44.417-6.858
						c9.251,4.308,16.791,12.507,21.805,23.709c2.489,5.563,4.059,11.009,5.577,16.275c0.641,2.224,1.246,4.324,1.899,6.354
						c0.358,1.114,1.45,4.508,2.538,5.719c0.786,0.875,3.078,1.819,6.247,1.819c0.003,0,0.006,0,0.01,0
						c4.357-0.003,9.393-1.453,14.724-2.989c7.963-2.292,16.273,2.301,18.566,10.262c2.293,7.96-2.301,16.272-10.262,18.566
						c-6.763,1.948-14.427,4.156-23.011,4.161c-0.009,0-0.019,0-0.027,0c-11.432,0-21.841-4.289-28.564-11.771
						c-4.73-5.268-7.092-11.337-8.779-16.579c-0.794-2.468-1.492-4.891-2.168-7.234c-1.287-4.468-2.504-8.688-4.133-12.329
						c-1.965-4.39-4.548-7.586-7.087-8.769c-3.318-1.546-8.872-0.248-12.919,3.016c-4.609,3.717-8.479,9.915-11.827,18.948
						c-2.354,6.354-4.121,12.961-5.25,19.638c-0.18,1.067-0.347,2.142-0.514,3.219c-1.025,6.604-2.188,14.09-6.165,21.446
						C334.189,134.911,323.54,141.484,312.713,141.484z"/>
				</g>
				
					<circle style="fill:#57B793;stroke:#2A2B29;stroke-width:2;stroke-linecap:round;stroke-linejoin:round;stroke-miterlimit:10;" cx="309.797" cy="127.299" r="15.952"/>
				<path style="fill:none;stroke:#2A2B29;stroke-width:2;stroke-linecap:round;stroke-miterlimit:10;" d="M303.639,118.379
					c1.619,1.234,3.046,2.721,4.213,4.389"/>
				<path style="fill:none;stroke:#2A2B29;stroke-width:2;stroke-linecap:round;stroke-miterlimit:10;" d="M313.261,124.239
					c1.728-1.338,3.895-2.099,6.08-2.135"/>
				<g>
					<g>
						<path style="fill:#E84662;stroke:#2A2B29;stroke-width:2;stroke-miterlimit:10;" d="M313.546,139.652
							c-2.167-0.071-4.36-0.262-6.58-0.658c-4.715-0.841-11.336-3.003-16.107-8.531c-1.985-2.299-1.729-5.772,0.57-7.757
							c2.298-1.985,5.772-1.731,7.757,0.57c2.078,2.406,5.526,4.143,9.71,4.889c4.274,0.761,8.99,0.519,13.55,0.287
							c3.037-0.169,5.618,2.177,5.774,5.211c0.156,3.034-2.178,5.619-5.211,5.775C319.917,139.595,316.761,139.757,313.546,139.652z
							"/>
					</g>
					<path style="fill:none;stroke:#2A2B29;stroke-width:2;stroke-linecap:round;stroke-miterlimit:10;" d="M295.023,126.868
						c3.231,3.744,8.039,5.842,12.908,6.71c4.869,0.868,9.858,0.618,14.797,0.365"/>
				</g>
				<polygon style="fill:#F8F7D9;stroke:#2A2B29;stroke-width:2;stroke-linecap:round;stroke-miterlimit:10;" points="
					311.253,134.183 310.95,139.505 314.943,139.686 316.056,134.181 				"/>
				<path style="fill:none;stroke:#2A2B29;stroke-width:2;stroke-linecap:round;stroke-linejoin:round;stroke-miterlimit:10;" d="
					M316.288,103.089c5.008,2.46,10.558,3.81,16.137,3.925"/>
				<path style="fill:none;stroke:#2A2B29;stroke-width:2;stroke-linecap:round;stroke-linejoin:round;stroke-miterlimit:10;" d="
					M343.062,117.771c-4.908,0.718-10.007,0.079-14.585-1.829"/>
				<path style="fill:none;stroke:#2A2B29;stroke-width:2;stroke-linecap:round;stroke-linejoin:round;stroke-miterlimit:10;" d="
					M346.835,96.859c-5.111-0.08-10.219-0.393-15.301-0.938"/>
				<path style="fill:none;stroke:#2A2B29;stroke-width:2;stroke-linecap:round;stroke-linejoin:round;stroke-miterlimit:10;" d="
					M325.775,94.782c-1.659-0.046-3.311-0.361-4.87-0.93"/>
				<path style="fill:none;stroke:#2A2B29;stroke-width:2;stroke-linecap:round;stroke-linejoin:round;stroke-miterlimit:10;" d="
					M320.294,80.464c3.946,2.295,8.461,3.602,13.023,3.77"/>
				<path style="fill:none;stroke:#2A2B29;stroke-width:2;stroke-linecap:round;stroke-linejoin:round;stroke-miterlimit:10;" d="
					M339.958,84.604c0.745,0.105,1.49,0.21,2.235,0.315"/>
				<path style="fill:none;stroke:#2A2B29;stroke-width:2;stroke-linecap:round;stroke-linejoin:round;stroke-miterlimit:10;" d="
					M352.69,75.863c-4.782-3.665-10.371-6.272-16.253-7.579"/>
				<path style="fill:none;stroke:#2A2B29;stroke-width:2;stroke-linecap:round;stroke-linejoin:round;stroke-miterlimit:10;" d="
					M349.499,65.49c-5.026-3.205-10.894-5.078-16.848-5.378"/>
				<path style="fill:none;stroke:#2A2B29;stroke-width:2;stroke-linecap:round;stroke-linejoin:round;stroke-miterlimit:10;" d="
					M338.593,44.387c5.017-1.033,10.139,1.591,13.87,5.102"/>
				<path style="fill:none;stroke:#2A2B29;stroke-width:2;stroke-linecap:round;stroke-linejoin:round;stroke-miterlimit:10;" d="
					M357.536,34.389c4.678,4.092,7.673,10.053,8.164,16.249"/>
				<path style="fill:none;stroke:#2A2B29;stroke-width:2;stroke-linecap:round;stroke-linejoin:round;stroke-miterlimit:10;" d="
					M375.076,37.811c1.388,6.333,1.317,12.98-0.204,19.282"/>
				<path style="fill:none;stroke:#2A2B29;stroke-width:2;stroke-linecap:round;stroke-linejoin:round;stroke-miterlimit:10;" d="
					M379.119,59.423c3.095-3.088,5.033-7.309,5.36-11.669"/>
				<path style="fill:none;stroke:#2A2B29;stroke-width:2;stroke-linecap:round;stroke-linejoin:round;stroke-miterlimit:10;" d="
					M385.16,43.319c0.363-2.278,0.334-4.619-0.086-6.887"/>
				<path style="fill:none;stroke:#2A2B29;stroke-width:2;stroke-linecap:round;stroke-linejoin:round;stroke-miterlimit:10;" d="
					M384.075,65.815c6.957,0.397,13.983-3.504,17.323-9.62"/>
				<path style="fill:none;stroke:#2A2B29;stroke-width:2;stroke-linecap:round;stroke-linejoin:round;stroke-miterlimit:10;" d="
					M402.979,53.331c0.589-1.025,0.954-2.178,1.064-3.355"/>
				<path style="fill:none;stroke:#2A2B29;stroke-width:2;stroke-linecap:round;stroke-linejoin:round;stroke-miterlimit:10;" d="
					M394.496,74.225c3.001-0.306,6.024-0.675,8.873-1.665c2.849-0.99,5.544-2.658,7.279-5.125"/>
				<path style="fill:none;stroke:#2A2B29;stroke-width:2;stroke-linecap:round;stroke-linejoin:round;stroke-miterlimit:10;" d="
					M394.295,83.13c3.413,0.273,7.066,0.497,10.034-1.21c1.002-0.576,1.878-1.35,2.864-1.955"/>
				<path style="fill:none;stroke:#2A2B29;stroke-width:2;stroke-linecap:round;stroke-linejoin:round;stroke-miterlimit:10;" d="
					M402.964,100.129c5.09-3.838,9.254-8.897,12.042-14.63"/>
				<path style="fill:none;stroke:#2A2B29;stroke-width:2;stroke-linecap:round;stroke-linejoin:round;stroke-miterlimit:10;" d="
					M422.035,83.449c0.145,6.44-1.549,12.912-4.829,18.456"/>
				<path style="fill:none;stroke:#2A2B29;stroke-width:2;stroke-linecap:round;stroke-linejoin:round;stroke-miterlimit:10;" d="
					M425.388,92.987c-0.294,5.237-1.44,10.426-3.379,15.3"/>
				<path style="fill:none;stroke:#2A2B29;stroke-width:2;stroke-linecap:round;stroke-linejoin:round;stroke-miterlimit:10;" d="
					M432.541,113.653c2.486-6.241,3.361-13.116,2.517-19.781"/>
				<path style="fill:none;stroke:#2A2B29;stroke-width:2;stroke-linecap:round;stroke-linejoin:round;stroke-miterlimit:10;" d="
					M450.093,110.541c0.67-9.622,0.729-19.874-4.204-28.162"/>
			</g>
			<path style="fill:none;stroke:#2A2B29;stroke-width:2;stroke-linecap:round;stroke-linejoin:round;stroke-miterlimit:10;" d="
				M324.965,48.704c3.082-7.147,8.466-13.281,15.153-17.264"/>
			<path style="fill:none;stroke:#2A2B29;stroke-width:2;stroke-linecap:round;stroke-linejoin:round;stroke-miterlimit:10;" d="
				M321.776,38.007c2.271-4.146,5.959-7.498,10.302-9.365"/>
		</g>
		<g style="clip-path:url(#SVGID_00000116194632579823913530000003208241220221328285_);">
			<g>
				<g>
					
						<path style="fill:#57B793;stroke:#2A2B29;stroke-width:2;stroke-linecap:round;stroke-linejoin:round;stroke-miterlimit:10;" d="
						M438.779,481.839c-3.348-2.466-5.735-6.226-6.354-10.67c-1.218-8.746,4.884-16.825,13.631-18.042
						c12.034-1.677,22.894-7.439,29.792-15.808c6.866-8.331,9.736-19.849,7.313-29.342c-0.583-2.284-1.534-4.84-2.54-7.544
						c-2.127-5.717-4.539-12.195-5.016-19.843c-0.946-15.134,5.649-29.843,20.16-44.969c8.581-8.942,18.218-16.88,28.64-23.588
						c7.427-4.779,17.32-2.635,22.1,4.792c4.779,7.427,2.635,17.32-4.792,22.1c-8.324,5.358-16.019,11.694-22.87,18.837
						c-7.752,8.081-11.666,15.285-11.321,20.834c0.183,2.924,1.586,6.694,3.071,10.685c1.196,3.212,2.551,6.855,3.555,10.789
						c4.934,19.338-0.285,41.404-13.62,57.588c-11.936,14.482-30.183,24.375-50.061,27.143
						C446.163,485.4,442.022,484.227,438.779,481.839z"/>
				</g>
				
					<ellipse transform="matrix(0.9962 -0.0868 0.0868 0.9962 -26.0424 47.7904)" style="fill:#F3BE48;stroke:#2A2B29;stroke-width:2;stroke-miterlimit:10;" cx="536.204" cy="323.184" rx="15.952" ry="15.952"/>
				<path style="fill:none;stroke:#2A2B29;stroke-width:2;stroke-linecap:round;stroke-miterlimit:10;" d="M536.536,312.35
					c0.572,1.954,0.839,3.997,0.789,6.032"/>
				<path style="fill:none;stroke:#2A2B29;stroke-width:2;stroke-linecap:round;stroke-miterlimit:10;" d="M540.808,322.775
					c2.185-0.053,4.381,0.62,6.161,1.887"/>
				<g>
					<g>
						<path style="fill:#E84662;stroke:#2A2B29;stroke-width:2;stroke-miterlimit:10;" d="M531.896,335.354
							c-1.703-1.342-3.355-2.797-4.907-4.432c-3.298-3.473-7.346-9.141-7.909-16.422c-0.234-3.028,2.031-5.673,5.059-5.908
							c3.028-0.235,5.674,2.03,5.908,5.059c0.246,3.17,1.992,6.613,4.918,9.695c2.99,3.148,6.93,5.75,10.739,8.267
							c2.545,1.666,3.233,5.085,1.559,7.62c-1.674,2.535-5.086,3.233-7.62,1.559C537.059,339.087,534.422,337.345,531.896,335.354z"
							/>
					</g>
					<path style="fill:none;stroke:#2A2B29;stroke-width:2;stroke-linecap:round;stroke-miterlimit:10;" d="M524.564,314.076
						c0.381,4.931,3.008,9.472,6.413,13.058c3.405,3.586,7.571,6.345,11.697,9.07"/>
				</g>
				<polygon style="fill:#F8F7D9;stroke:#2A2B29;stroke-width:2;stroke-linecap:round;stroke-miterlimit:10;" points="
					533.293,329.59 529.893,333.696 533.001,336.21 537.162,332.438 				"/>
				<path style="fill:none;stroke:#2A2B29;stroke-width:2;stroke-linecap:round;stroke-linejoin:round;stroke-miterlimit:10;" d="
					M505.875,325.964c-0.936,4.978,0.383,10.335,3.522,14.31"/>
				<path style="fill:none;stroke:#2A2B29;stroke-width:2;stroke-linecap:round;stroke-linejoin:round;stroke-miterlimit:10;" d="
					M498.998,332.23c0.523,7.794,4.705,15.265,11.076,19.786"/>
				<path style="fill:none;stroke:#2A2B29;stroke-width:2;stroke-linecap:round;stroke-linejoin:round;stroke-miterlimit:10;" d="
					M496.284,350.762c1.557,3.885,4.603,7.151,8.37,8.975"/>
				<path style="fill:none;stroke:#2A2B29;stroke-width:2;stroke-linecap:round;stroke-linejoin:round;stroke-miterlimit:10;" d="
					M508.806,371.455c-3.39,0.776-6.879,1.518-10.32,1.015c-5.055-0.739-9.31-4.038-13.299-7.229"/>
				<path style="fill:none;stroke:#2A2B29;stroke-width:2;stroke-linecap:round;stroke-linejoin:round;stroke-miterlimit:10;" d="
					M507.077,377.838c-4.415,1.383-9.328,1.112-13.564-0.749"/>
				<path style="fill:none;stroke:#2A2B29;stroke-width:2;stroke-linecap:round;stroke-linejoin:round;stroke-miterlimit:10;" d="
					M479.975,389.882c4.825,3.503,11.465,4.343,17.01,2.152"/>
				<path style="fill:none;stroke:#2A2B29;stroke-width:2;stroke-linecap:round;stroke-linejoin:round;stroke-miterlimit:10;" d="
					M488.071,407.79c4.58,0.436,9.23,0.533,13.754-0.305c4.524-0.838,8.938-2.658,12.38-5.71"/>
				<path style="fill:none;stroke:#2A2B29;stroke-width:2;stroke-linecap:round;stroke-linejoin:round;stroke-miterlimit:10;" d="
					M486.137,419.266c4.872,3.811,10.842,6.203,16.998,6.81"/>
				<path style="fill:none;stroke:#2A2B29;stroke-width:2;stroke-linecap:round;stroke-linejoin:round;stroke-miterlimit:10;" d="
					M485.084,430.422c3.875,3.32,7.995,6.355,12.315,9.072"/>
				<path style="fill:none;stroke:#2A2B29;stroke-width:2;stroke-linecap:round;stroke-linejoin:round;stroke-miterlimit:10;" d="
					M500.702,441.356c0.904,0.394,1.807,0.788,2.711,1.183"/>
				<path style="fill:none;stroke:#2A2B29;stroke-width:2;stroke-linecap:round;stroke-linejoin:round;stroke-miterlimit:10;" d="
					M482.119,439.708c4.025,4.468,8.897,8.171,14.279,10.853"/>
				<path style="fill:none;stroke:#2A2B29;stroke-width:2;stroke-linecap:round;stroke-linejoin:round;stroke-miterlimit:10;" d="
					M479.587,449.481c4.554,5.336,10.382,9.577,16.861,12.269"/>
				<path style="fill:none;stroke:#2A2B29;stroke-width:2;stroke-linecap:round;stroke-linejoin:round;stroke-miterlimit:10;" d="
					M462.271,447.989c2.12,6.176,5.546,11.901,9.987,16.688"/>
				<path style="fill:none;stroke:#2A2B29;stroke-width:2;stroke-linecap:round;stroke-linejoin:round;stroke-miterlimit:10;" d="
					M455.464,451.361c-0.698,7.623,1.522,15.478,6.107,21.607"/>
				<path style="fill:none;stroke:#2A2B29;stroke-width:2;stroke-linecap:round;stroke-linejoin:round;stroke-miterlimit:10;" d="
					M464.417,476.39c0.802,1.291,1.854,2.426,3.081,3.323"/>
				<path style="fill:none;stroke:#2A2B29;stroke-width:2;stroke-linecap:round;stroke-linejoin:round;stroke-miterlimit:10;" d="
					M445.884,453.239c-1.4,5.574-1.01,11.582,1.098,16.928"/>
				<path style="fill:none;stroke:#2A2B29;stroke-width:2;stroke-linecap:round;stroke-linejoin:round;stroke-miterlimit:10;" d="
					M448.8,474.457c0.393,1.138,1.028,2.192,1.851,3.072"/>
			</g>
			<path style="fill:none;stroke:#2A2B29;stroke-width:2;stroke-linecap:round;stroke-linejoin:round;stroke-miterlimit:10;" d="
				M525.749,430.945c-1.496,9.391-5.817,18.314-12.256,25.312"/>
			<path style="fill:none;stroke:#2A2B29;stroke-width:2;stroke-linecap:round;stroke-linejoin:round;stroke-miterlimit:10;" d="
				M532.228,438.107c-1.104,5.861-3.527,11.469-7.039,16.288"/>
		</g>
		<g style="clip-path:url(#SVGID_00000116194632579823913530000003208241220221328285_);">
			<g>
				<g>
					<path style="fill:#F3BE48;stroke:#2A2B29;stroke-width:2.198;stroke-miterlimit:10;" d="M190.174,24.929
						c-11.531,5.561-22.792,11.793-34.717,16.448c-8.276,3.23-21.105,5.992-21.862-5.942c-0.961-15.159-1.922-30.318-2.883-45.477
						c-0.405-6.39-0.871-13.004-3.884-18.654c-3.013-5.65-9.324-10.075-15.601-8.808c-8.158,1.646-11.728,11.08-13.887,19.118
						c-2.635,9.807-5.27,19.615-7.905,29.422c-1.457,5.423-2.981,10.987-6.315,15.504c-3.335,4.518-8.943,7.815-14.462,6.78
						c-3.969-0.744-7.205-3.518-10.235-6.187C50.753,20.375,43.085,13.618,35.416,6.86C27.832,0.177,19.013-6.938,8.943-6.041
						C6.641-5.836,4.233-5.108,2.762-3.325c-1.198,1.452-1.604,3.39-1.846,5.257C-1.793,22.866,13.51,41.847,24.646,58.055
						c5.514,8.026,11.139,18.096,7.071,26.943c-2.859,6.218-9.593,9.5-15.761,12.468C5.333,102.577-5.061,108.162-15.186,114.2
						c-6.945,4.141-14.643,10.144-13.98,18.202c1.047,12.724,15.362,14.164,24.916,14.651c14.316,0.73,28.419,1.067,42.725,0.27
						c0.598-0.033,1.255-0.049,1.724,0.324c0.804,0.64,0.526,1.904,0.174,2.869c-5.876,16.087-12.536,32.097-17.675,48.427
						c-2.999,9.529-5.724,20.84,0.372,28.755c5.734,7.444,17.241,8.134,25.736,4.118c8.494-4.016,14.679-11.579,20.566-18.903
						c8.949-11.133,17.898-22.265,26.848-33.398c1.031-1.283,2.288-2.68,3.934-2.691c1.649-0.011,2.928,1.379,3.946,2.676
						c14.575,18.572,22.105,42.36,42.045,56.494c3.189,2.261,6.687,4.324,10.568,4.795c3.881,0.471,8.223-1.009,10.134-4.419
						c1.053-1.879,1.271-4.099,1.396-6.249c1.424-24.487-6.425-48.74-5.643-73.255c0.062-1.945,0.301-4.137,1.833-5.338
						c1.355-1.062,3.259-0.97,4.969-0.766c20.794,2.484,40.318,13.833,61.236,12.847c5.476-0.258,11.405-1.67,14.734-6.027
						c2.971-3.889,3.146-9.404,1.439-13.991c-1.707-4.587-5.047-8.38-8.652-11.69c-15.334-14.079-36.43-23.161-54.033-34.184
						c-3.114-1.95-6.503-4.279-7.256-7.875c-1.033-4.929,3.327-9.173,7.209-12.381c16.385-13.543,32.035-28.502,42.784-46.841
						c1.471-2.509,2.89-5.294,2.529-8.18c-0.491-3.924-4.285-6.793-8.186-7.44c-3.901-0.646-7.866,0.459-11.608,1.739
						C202.936,19.017,196.514,21.872,190.174,24.929z"/>
					<path style="fill:#E84662;stroke:#2A2B29;stroke-width:2.198;stroke-miterlimit:10;" d="M91.08,73.062
						c0.898,0.205,1.819,0.443,2.552,1.001c0.934,0.711,1.435,1.845,1.815,2.955c1.295,3.789,1.598,7.836,1.815,11.835
						c0.29,5.336,0.437,10.761-0.852,15.947c-1.289,5.186-4.196,10.178-8.795,12.899c-4.436,2.624-9.877,2.862-15.014,2.454
						c-4.011-0.319-8.098-1.025-11.567-3.063c-5.268-3.096-8.411-8.844-10.39-14.625c-1.962-5.732-3.303-12.099-3.164-18.187
						c0.13-5.724,2.774-6.639,8.016-8.639C66.763,71.338,79.313,70.38,91.08,73.062z"/>
					<path style="fill:#E84662;stroke:#2A2B29;stroke-width:2.198;stroke-miterlimit:10;" d="M119.519,101.687
						c0.54,3.056,1.235,6.197,3.072,8.699c2.047,2.787,5.324,4.471,8.692,5.255c3.368,0.784,6.865,0.756,10.323,0.71
						c2.972-0.04,6.013-0.103,8.793-1.153c4.848-1.831,8.204-6.465,9.786-11.4c1.582-4.935,1.65-10.209,1.705-15.391
						c0.034-3.245,0.068-6.491,0.102-9.736c0.011-1.036-0.004-2.156-0.624-2.987c-0.483-0.647-1.252-1.004-1.995-1.319
						c-9.066-3.85-19.121-5.341-28.914-4.287c-5.475,0.589-12.733,1.767-12.912,8.155
						C117.326,86.043,118.161,94.003,119.519,101.687z"/>
					<path style="fill:none;stroke:#2A2B29;stroke-width:2.198;stroke-miterlimit:10;" d="M97.521,90.104
						c6.177-3.173,13.634-3.755,20.229-1.58"/>
					<path style="fill:none;stroke:#2A2B29;stroke-width:2.198;stroke-miterlimit:10;" d="M96.967,85.614
						c3.472-3.544,8.919-4.26,13.87-3.935c2.332,0.153,4.835,0.579,6.469,2.249"/>
					<path style="fill:none;stroke:#2A2B29;stroke-width:2.198;stroke-miterlimit:10;" d="M47.184,87.135
						c15.645-4.534,33.027-5.861,49.244-4.341"/>
					<path style="fill:none;stroke:#2A2B29;stroke-width:2.198;stroke-miterlimit:10;" d="M117.586,80.929
						c14.645-1.608,29.492-1.363,44.076,0.726"/>
					<path style="fill:#F8F7D9;" d="M93.587,87.227l-23.72,14.065l8.26,0.847l-15.884,12.283c0,0,2.965,1.564,7.201,1.947
						l22.237-15.783l-7.695-1.412l9.601-5.365V87.227z"/>
					<path style="fill:#F8F7D9;" d="M157.962,83.611l-23.72,14.065l8.26,0.847l-15.884,12.284c0,0,2.965,1.564,7.201,1.947
						l22.237-15.783l-7.695-1.412l9.601-5.365V83.611z"/>
					<g>
						<path style="fill:#2A2B29;" d="M91.996,127.147c4.311-3.913,10.084-6.482,15.885-5.988c4.255,0.362,8.28,2.345,11.491,5.159
							c3.211,2.814,5.651,6.427,7.516,10.268c1.461,3.011,2.608,6.358,2.062,9.66c-0.546,3.302-3.266,6.436-6.613,6.439
							c-1.183,0.001-2.334-0.373-3.43-0.819c-3.344-1.358-6.369-3.398-9.227-5.603c-1.4-1.08-2.863-2.247-4.616-2.478
							c-1.722-0.227-3.442,0.504-4.866,1.498c-1.425,0.994-2.645,2.254-4.038,3.292c-1.715,1.278-3.745,2.225-5.882,2.316
							c-5.401,0.228-7.722-5.309-7.25-10.019C83.516,135.998,88.534,130.29,91.996,127.147z"/>
						<path style="fill:#57B793;" d="M122.33,156.507c-1.911,0-3.601-0.587-4.861-1.1c-3.208-1.302-6.329-3.189-10.123-6.118
							l-0.131-0.101c-0.924-0.714-1.973-1.524-2.651-1.613c-0.511-0.068-1.325,0.246-2.179,0.842
							c-0.612,0.428-1.234,0.965-1.892,1.536c-0.641,0.555-1.302,1.13-2.05,1.687c-2.541,1.894-5.31,2.955-8.005,3.068
							c-3.101,0.143-5.782-0.953-7.838-3.132c-2.539-2.689-3.801-6.834-3.376-11.085c0.689-6.862,7.364-13.598,10.202-16.174
							c0-0.001,0-0.001,0.001-0.001c5.482-4.976,12.322-7.507,18.776-6.966c4.809,0.409,9.67,2.574,13.686,6.094
							c3.31,2.902,6.147,6.762,8.435,11.472c1.399,2.884,3.171,7.262,2.394,11.953c-0.908,5.491-5.371,9.633-10.38,9.636
							C122.338,156.507,122.334,156.507,122.33,156.507z M104.43,139.925c0.382,0,0.76,0.025,1.136,0.073
							c2.721,0.36,4.718,1.903,6.324,3.143l0.127,0.098c3.222,2.488,5.792,4.056,8.329,5.087c0.617,0.25,1.398,0.537,1.986,0.537
							c0.001,0,0.001,0,0.003,0c1.209-0.001,2.566-1.546,2.846-3.24c0.321-1.937-0.229-4.278-1.73-7.37
							c-1.838-3.788-4.059-6.838-6.596-9.063c-2.799-2.453-6.1-3.953-9.295-4.225c-4.335-0.362-9.078,1.458-12.993,5.01
							c-3.617,3.284-7.411,8.044-7.734,11.278c-0.199,1.984,0.335,4.024,1.327,5.076c0.52,0.55,1.12,0.785,1.959,0.744
							c1.46-0.061,2.851-0.883,3.76-1.561c0.521-0.388,1.051-0.848,1.612-1.335c0.779-0.674,1.584-1.372,2.525-2.029
							C100.116,140.682,102.313,139.925,104.43,139.925z"/>
					</g>
					<g>
						<path style="fill:#F8F7D9;" d="M100.906,132.864c0.006,0.193,0.017,0.402,0.139,0.551c0.113,0.138,0.296,0.195,0.469,0.24
							c1.08,0.283,2.205,0.398,3.32,0.34c0.195-0.01,0.4-0.029,0.56-0.142c0.268-0.189,0.312-0.561,0.331-0.888
							c0.129-2.146,0.258-4.291,0.387-6.437c0.007-0.109,0.006-0.235-0.078-0.304c-0.071-0.059-0.174-0.053-0.265-0.044
							c-1.284,0.124-3.743,0.19-4.665,1.276c-0.468,0.551-0.25,1.614-0.248,2.315C100.86,130.801,100.877,131.833,100.906,132.864z"
							/>
						<path style="fill:#F8F7D9;" d="M111.898,132.864c-0.006,0.193-0.017,0.402-0.139,0.551c-0.113,0.138-0.296,0.195-0.469,0.24
							c-1.08,0.283-2.204,0.398-3.32,0.34c-0.195-0.01-0.4-0.029-0.56-0.142c-0.268-0.189-0.312-0.561-0.331-0.888
							c-0.129-2.146-0.258-4.291-0.387-6.437c-0.007-0.109-0.006-0.235,0.078-0.304c0.071-0.059,0.174-0.053,0.265-0.044
							c1.284,0.124,3.743,0.19,4.665,1.276c0.468,0.551,0.25,1.614,0.247,2.315C111.945,130.801,111.928,131.833,111.898,132.864z"
							/>
					</g>
					<g>
						<path style="fill:#57B793;" d="M122.331,157.606c-2.104,0-3.924-0.631-5.275-1.181c-3.301-1.34-6.502-3.272-10.38-6.265
							l-0.13-0.101c-0.606-0.468-1.729-1.335-2.123-1.394c-0.164,0.001-0.665,0.137-1.407,0.654c-0.577,0.404-1.199,0.943-1.8,1.465
							c-0.663,0.575-1.337,1.16-2.113,1.738c-2.719,2.027-5.698,3.163-8.616,3.285c-0.192,0.009-0.387,0.013-0.581,0.013
							c-3.147,0-5.949-1.206-8.102-3.489c-2.755-2.918-4.127-7.386-3.671-11.949c0.729-7.249,7.626-14.218,10.558-16.878
							c5.203-4.723,11.52-7.324,17.787-7.324c0.608,0,1.221,0.025,1.82,0.076c5.042,0.429,10.127,2.688,14.319,6.362
							c3.42,2.998,6.347,6.975,8.699,11.819c1.465,3.02,3.317,7.613,2.49,12.613c-0.995,6.014-5.923,10.552-11.464,10.556
							C122.341,157.606,122.331,157.606,122.331,157.606z M104.43,138.826c0.425,0,0.854,0.028,1.277,0.083
							c3.015,0.398,5.233,2.111,6.852,3.361l0.131,0.102c3.134,2.42,5.624,3.944,8.069,4.938c0.278,0.112,1.128,0.456,1.573,0.456
							c0.546,0,1.553-1.04,1.764-2.32c0.282-1.701-0.237-3.833-1.634-6.711c-1.774-3.655-3.905-6.587-6.333-8.716
							c-2.623-2.299-5.7-3.705-8.664-3.957c-0.33-0.028-0.666-0.042-1.003-0.042c-3.75,0-7.817,1.739-11.158,4.771
							c-4.094,3.716-7.128,8.064-7.379,10.574c-0.167,1.659,0.258,3.391,1.033,4.213c0.277,0.294,0.543,0.403,0.977,0.403
							l0.128-0.003c1.186-0.05,2.371-0.758,3.157-1.345c0.489-0.364,1.003-0.811,1.548-1.283c0.811-0.703,1.634-1.415,2.617-2.1
							C99.656,139.664,102.092,138.826,104.43,138.826z"/>
						<path style="fill:#2A2B29;" d="M106.476,117.279c0.579,0,1.155,0.024,1.729,0.072c4.809,0.409,9.67,2.574,13.686,6.094
							c3.31,2.902,6.147,6.762,8.435,11.472c1.399,2.884,3.171,7.262,2.394,11.953c-0.908,5.491-5.371,9.633-10.38,9.636
							c-0.003,0-0.006,0-0.01,0c-1.911,0-3.601-0.587-4.861-1.1c-3.208-1.302-6.329-3.189-10.123-6.118l-0.131-0.101
							c-0.924-0.714-1.973-1.524-2.651-1.613c-0.046-0.006-0.095-0.009-0.146-0.009c-0.513,0-1.256,0.309-2.034,0.852
							c-0.612,0.428-1.234,0.965-1.892,1.536c-0.641,0.555-1.302,1.13-2.05,1.687c-2.541,1.894-5.31,2.955-8.005,3.068
							c-0.18,0.008-0.358,0.012-0.535,0.012c-2.875,0-5.366-1.091-7.303-3.145c-2.539-2.689-3.801-6.834-3.376-11.085
							c0.689-6.862,7.364-13.598,10.202-16.174c0-0.001,0-0.001,0.001-0.001C94.423,119.784,100.546,117.28,106.476,117.279
							 M89.934,147.079c0.059,0,0.12-0.001,0.182-0.005c1.46-0.061,2.851-0.883,3.76-1.561c0.521-0.388,1.051-0.848,1.612-1.335
							c0.779-0.674,1.584-1.372,2.525-2.029c2.102-1.468,4.299-2.225,6.416-2.225c0.382,0,0.76,0.025,1.136,0.073
							c2.721,0.36,4.718,1.903,6.324,3.143l0.127,0.098c3.222,2.488,5.792,4.056,8.329,5.087c0.617,0.25,1.398,0.537,1.986,0.537
							c0.001,0,0.001,0,0.003,0c1.209-0.001,2.566-1.546,2.846-3.24c0.321-1.937-0.229-4.278-1.73-7.37
							c-1.839-3.788-4.059-6.838-6.596-9.063c-2.799-2.453-6.1-3.953-9.295-4.225c-0.363-0.03-0.728-0.045-1.096-0.045
							c-4.027,0-8.309,1.8-11.897,5.056c-3.617,3.284-7.411,8.044-7.734,11.278c-0.199,1.984,0.335,4.024,1.327,5.076
							C88.639,146.84,89.189,147.079,89.934,147.079 M106.478,115.081c0,0-0.002,0-0.002,0c-6.541,0-13.119,2.702-18.524,7.608
							c-0.004,0.004-0.009,0.008-0.013,0.012c-3.032,2.754-10.135,9.955-10.9,17.571c-0.488,4.877,0.994,9.667,3.965,12.814
							c2.366,2.508,5.444,3.834,8.901,3.834c0.21,0,0.423-0.005,0.636-0.015c3.13-0.131,6.321-1.342,9.218-3.502
							c0.8-0.597,1.484-1.189,2.145-1.762c0.612-0.53,1.211-1.051,1.742-1.422c0.297-0.207,0.533-0.329,0.688-0.396
							c0.418,0.24,1.127,0.788,1.538,1.105l0.132,0.102c3.959,3.056,7.24,5.034,10.638,6.413c1.443,0.587,3.395,1.261,5.688,1.261
							c6.083-0.005,11.478-4.938,12.559-11.476c0.878-5.309-1.055-10.117-2.585-13.272c-2.417-4.977-5.432-9.07-8.963-12.166
							c-4.367-3.827-9.676-6.182-14.949-6.631C107.759,115.108,107.116,115.081,106.478,115.081L106.478,115.081z M89.806,144.872
							c-0.002-0.004-0.021-0.02-0.051-0.051c-0.476-0.504-0.882-1.895-0.737-3.346c0.223-2.226,3.177-6.377,7.025-9.87
							c3.142-2.85,6.94-4.485,10.42-4.485c0.306,0,0.614,0.013,0.913,0.038c2.729,0.232,5.582,1.542,8.029,3.688
							c2.316,2.031,4.358,4.847,6.068,8.37c1.275,2.626,1.779,4.605,1.539,6.051c-0.11,0.668-0.552,1.212-0.79,1.384
							c-0.15-0.032-0.462-0.12-1.051-0.359c-2.347-0.954-4.757-2.431-7.811-4.79l-0.125-0.097c-1.723-1.331-4.076-3.147-7.381-3.584
							c-0.477-0.061-0.953-0.092-1.424-0.092c-2.565,0-5.218,0.906-7.674,2.621c-1.03,0.718-1.875,1.45-2.692,2.158
							c-0.558,0.484-1.05,0.911-1.499,1.245c-0.937,0.698-1.838,1.099-2.539,1.128l-0.09,0.003
							C89.859,144.881,89.82,144.875,89.806,144.872L89.806,144.872z"/>
					</g>
					<path style="fill:none;stroke:#2A2B29;stroke-width:2.198;stroke-linecap:round;stroke-miterlimit:10;" d="M36.764,112.018
						c-0.053,11.216,3.698,22.415,10.496,31.336c6.285,8.248,15.018,14.459,24.551,18.54c9.533,4.081,19.856,6.101,30.199,6.843
						c5.795,0.416,11.647,0.438,17.386-0.467c15.704-2.475,29.974-12.078,38.927-25.215c8.953-13.137,12.673-29.566,11.156-45.391"
						/>
					<path style="fill:none;stroke:#2A2B29;stroke-width:2.198;stroke-linecap:round;stroke-miterlimit:10;" d="M42.81,76.216
						c2.848-8.089,8.517-14.985,15.255-20.29c6.739-5.304,14.531-9.117,22.49-12.31"/>
					<path style="fill:none;stroke:#2A2B29;stroke-width:2.198;stroke-linecap:round;stroke-miterlimit:10;" d="M144.963,54.305
						c6.831,3.3,11.356,9.9,15.561,16.214"/>
					<path style="fill:none;stroke:#2A2B29;stroke-width:2.198;stroke-linecap:round;stroke-miterlimit:10;" d="M122.946,47.736
						c3.578,0.311,7.079,1.469,10.136,3.354"/>
					<path style="fill:none;stroke:#2A2B29;stroke-width:2.198;stroke-linecap:round;stroke-miterlimit:10;" d="M62.938,68.751
						c5.809-3.536,12.552-5.521,19.351-5.695"/>
					<path style="fill:none;stroke:#2A2B29;stroke-width:2.198;stroke-linecap:round;stroke-miterlimit:10;" d="M127.189,62.834
						c6.03-0.105,12.078,0.938,17.724,3.056"/>
					<path style="fill:none;stroke:#F8F7D9;stroke-width:2.198;stroke-linecap:round;stroke-miterlimit:10;" d="M84.561,148.194
						c0.74,1.402,2.306,2.247,3.884,2.396c1.579,0.15,3.162-0.317,4.585-1.018"/>
					<path style="fill:none;stroke:#F8F7D9;stroke-width:2.198;stroke-linecap:round;stroke-miterlimit:10;" d="M96.17,147.833
						c1.086-0.561,2.172-1.123,3.258-1.684"/>
					<path style="fill:none;stroke:#F8F7D9;stroke-width:2.198;stroke-linecap:round;stroke-miterlimit:10;" d="M122.195,129.455
						c1.44,1.466,3.074,3.32,3.923,5.381"/>
					<path style="fill:none;stroke:#F8F7D9;stroke-width:2.198;stroke-linecap:round;stroke-miterlimit:10;" d="M127.151,137.805
						c0.26,0.792,0.465,1.603,0.614,2.423"/>
				</g>
				
					<path style="fill:none;stroke:#2A2B29;stroke-width:2.198;stroke-linecap:round;stroke-linejoin:round;stroke-miterlimit:10;" d="
					M158.851,132.589c2.869,2.137,5.737,4.274,8.606,6.411"/>
				
					<path style="fill:none;stroke:#2A2B29;stroke-width:2.198;stroke-linecap:round;stroke-linejoin:round;stroke-miterlimit:10;" d="
					M159.939,125.302c4.143,3.199,8.285,6.398,12.428,9.596"/>
				
					<path style="fill:none;stroke:#2A2B29;stroke-width:2.198;stroke-linecap:round;stroke-linejoin:round;stroke-miterlimit:10;" d="
					M52.363,50.179c2.913,2.923,5.826,5.846,8.738,8.769"/>
				
					<path style="fill:none;stroke:#2A2B29;stroke-width:2.198;stroke-linecap:round;stroke-linejoin:round;stroke-miterlimit:10;" d="
					M59.084,48.535c1.79,1.975,3.58,3.951,5.37,5.926"/>
			</g>
			
				<path style="fill:none;stroke:#2A2B29;stroke-width:2.198;stroke-linecap:round;stroke-linejoin:round;stroke-miterlimit:10;" d="
				M15.636,23.98C9.069,32.558,1.377,40.274-7.182,46.868"/>
			
				<path style="fill:none;stroke:#2A2B29;stroke-width:2.198;stroke-linecap:round;stroke-linejoin:round;stroke-miterlimit:10;" d="
				M19.703,37.354C11.729,45.747,3.754,54.14-4.22,62.533"/>
		</g>
		<g style="clip-path:url(#SVGID_00000116194632579823913530000003208241220221328285_);">
			<g>
				<g>
					<g>
						
							<path style="fill:#57B793;stroke:#2A2B29;stroke-width:2.4816;stroke-linecap:round;stroke-linejoin:round;stroke-miterlimit:10;" d="
							M197.424,384.731c0.965,9.37,0.39,18.898-1.793,28.063c3.674,2.08,8.586,1.547,12.619,1.006
							c2.183-0.293,12.441-2.138,13.046-4.753c-4.993,21.6-21.337,39.481-40.975,49.769c-19.638,10.288-42.278,13.653-64.447,13.432
							c-10.018-0.1-20.165-0.926-29.614-4.258c-18.137-6.396-32.132-21.624-40.771-38.805c-9.475-18.847-12.8-42.779-1.153-60.368
							c-8.876-6.632-16.01-15.869-19.041-26.526c-3.032-10.657-1.663-22.727,4.657-31.828c7.936-11.43,23.547-16.879,36.872-12.872
							c13.325,4.008,23.34,17.165,23.654,31.076c8.022-5.604,17.636-5.824,27.076-6.685c5.028-0.458,28.562-0.755,30.916,5.275
							c-3.794-9.723-0.359-21.656,7.745-28.233c8.104-6.576,20.17-7.575,29.467-2.834c23.134,11.798,18.043,41.734,2.195,57.227
							C193.081,363.094,196.299,373.805,197.424,384.731z"/>
						<g>
							<path style="fill:#F8F7D9;stroke:#2A2B29;stroke-width:2.4816;stroke-miterlimit:10;" d="M176.831,386.957
								c0.565-8.192-1.033-16.523-4.589-23.925c-2.302-4.79-5.65-9.392-10.515-11.533c-5.703-2.509-12.644-1.068-17.631,2.669
								c-4.986,3.736-8.193,9.458-9.994,15.424c-1.801,5.965-2.372,12.263-2.88,18.473L176.831,386.957z"/>
							<path style="fill:#E84662;stroke:#2A2B29;stroke-width:2.4816;stroke-miterlimit:10;" d="M184.727,386.212
								c-0.82,10.591-6.287,21.491-16.132,25.482c-2.814,1.141-5.839,1.678-8.861,1.971c-5.178,0.501-10.603,0.26-15.266-2.046
								c-4.542-2.246-9.119-5.931-11.32-10.414c-1.227-2.5-3.202-8.528-3.851-13.918L184.727,386.212z"/>
							<path style="fill:#2A2B29;" d="M170.89,385.797c0.072-2.45,0.007-4.904-0.195-7.346c-0.173-2.083-0.469-4.23-1.562-6.012
								c-1.093-1.782-3.178-3.11-5.23-2.715c-1.663,0.32-2.97,1.698-3.637,3.255c-0.667,1.557-0.795,3.285-0.866,4.978
								c-0.113,2.688-0.107,5.381,0.02,8.068L170.89,385.797z"/>
							<path style="fill:#F8F7D9;" d="M166.006,376.598c-0.033,0.754-0.198,1.58-0.794,2.044c-0.384,0.299-0.916,0.395-1.381,0.252
								c-0.465-0.144-0.85-0.523-1-0.986c-0.072-0.222-0.093-0.457-0.106-0.689c-0.023-0.42-0.024-0.842-0.001-1.263
								c0.057-1.065,0.61-2.979,2.07-2.754C166.125,373.406,166.048,375.63,166.006,376.598z"/>
							<path style="fill:#F8F7D9;" d="M168.454,380.657c-0.039,0.303-0.117,0.613-0.307,0.854c-0.378,0.48-1.19,0.524-1.618,0.088
								c-0.401-0.409-0.415-1.055-0.331-1.622c0.06-0.408,0.163-0.822,0.404-1.157C167.752,377.22,168.579,379.69,168.454,380.657z"
								/>
						</g>
						<g>
							<path style="fill:#F8F7D9;stroke:#2A2B29;stroke-width:2.4816;stroke-miterlimit:10;" d="M112.462,386.957
								c0.565-8.192-1.033-16.523-4.589-23.925c-2.302-4.79-5.65-9.392-10.515-11.533c-5.703-2.509-12.644-1.068-17.631,2.669
								c-4.986,3.736-8.193,9.458-9.994,15.424c-1.801,5.965-2.372,12.263-2.88,18.473L112.462,386.957z"/>
							<path style="fill:#E84662;stroke:#2A2B29;stroke-width:2.4816;stroke-miterlimit:10;" d="M120.358,386.212
								c-0.82,10.591-6.287,21.491-16.132,25.482c-2.814,1.141-5.839,1.678-8.862,1.971c-5.178,0.501-10.603,0.26-15.266-2.046
								c-4.542-2.246-9.119-5.931-11.32-10.414c-1.227-2.5-3.202-8.528-3.851-13.918L120.358,386.212z"/>
							<path style="fill:#2A2B29;" d="M106.521,385.797c0.072-2.45,0.007-4.904-0.195-7.346c-0.173-2.083-0.469-4.23-1.562-6.012
								c-1.093-1.782-3.177-3.11-5.23-2.715c-1.663,0.32-2.97,1.698-3.638,3.255c-0.667,1.557-0.795,3.285-0.866,4.978
								c-0.113,2.688-0.107,5.381,0.02,8.068L106.521,385.797z"/>
							<path style="fill:#F8F7D9;" d="M101.637,376.598c-0.033,0.754-0.198,1.58-0.794,2.044c-0.384,0.299-0.916,0.395-1.381,0.252
								c-0.465-0.144-0.85-0.523-1-0.986c-0.072-0.222-0.093-0.457-0.106-0.689c-0.023-0.42-0.024-0.842-0.001-1.263
								c0.057-1.065,0.61-2.979,2.07-2.754C101.756,373.406,101.679,375.63,101.637,376.598z"/>
							<path style="fill:#F8F7D9;" d="M104.086,380.657c-0.039,0.303-0.117,0.613-0.307,0.854c-0.378,0.48-1.19,0.524-1.618,0.088
								c-0.401-0.409-0.415-1.055-0.331-1.622c0.06-0.408,0.163-0.822,0.404-1.157C103.383,377.22,104.21,379.69,104.086,380.657z"
								/>
						</g>
						
							<line style="fill:none;stroke:#2A2B29;stroke-width:2.4816;stroke-linecap:round;stroke-linejoin:round;stroke-miterlimit:10;" x1="184.17" y1="390.346" x2="160.105" y2="390.346"/>
						
							<line style="fill:none;stroke:#2A2B29;stroke-width:2.4816;stroke-linecap:round;stroke-linejoin:round;stroke-miterlimit:10;" x1="119.801" y1="390.346" x2="89.713" y2="390.346"/>
						<path style="fill:#F3BE48;stroke:#2A2B29;stroke-width:2.4816;stroke-miterlimit:10;" d="M187.975,331.72
							c1.797-3.896,2.592-8.372,1.528-12.529c-1.064-4.156-4.186-7.892-8.317-9.048c-4.968-1.39-10.369,1.132-13.827,4.96
							c-3.458,3.828-5.371,8.768-7.209,13.588c2.189,1.248,4.46,2.354,6.792,3.307c3.471-4.529,7.532-8.605,12.048-12.092
							c-0.878,6.042-2.028,12.044-3.444,17.983c0,0.432,2.553,2.613,2.932,2.788c2.429,1.123,1.428,1.167,3.773-0.463
							C184.668,338.533,186.775,334.321,187.975,331.72z"/>
						<path style="fill:#F3BE48;stroke:#2A2B29;stroke-width:2.4816;stroke-miterlimit:10;" d="M66.632,317.693
							c-6.402-2.894-14.576-2.088-19.676,2.743c-5.291,5.012-6.433,13.26-4.632,20.322c1.511,5.928,5.061,11.543,10.435,14.469
							c2.337-3.622,5.476-6.722,9.127-9.013c-2.173-4.848-4.346-9.696-6.519-14.544c4.792,3.713,9.585,7.425,14.377,11.138
							c1.057-0.778,5.936-5.834,6.529-6.325c2.85-2.362,3.479-2.524,2.287-6.131C76.777,324.964,71.704,319.986,66.632,317.693z"/>
						<path style="fill:#F3BE48;stroke:#2A2B29;stroke-width:2.4816;stroke-miterlimit:10;" d="M221.273,393.486
							c1.407-2.787,3.791-5.243,6.824-5.982c3.815-0.93,8.017,1.205,9.956,4.619c1.939,3.414,1.753,7.802-0.007,11.312
							c-1.76,3.51-4.939,6.178-8.496,7.839C215.321,417.916,217.317,401.322,221.273,393.486z"/>
						
							<line style="fill:none;stroke:#2A2B29;stroke-width:4.9633;stroke-linecap:round;stroke-miterlimit:10;" x1="104.377" y1="344.667" x2="84.601" y2="344.667"/>
						
							<line style="fill:none;stroke:#2A2B29;stroke-width:4.9633;stroke-linecap:round;stroke-miterlimit:10;" x1="163.249" y1="343.706" x2="143.508" y2="343.706"/>
						
							<path style="fill:none;stroke:#2A2B29;stroke-width:2.4816;stroke-linecap:round;stroke-linejoin:round;stroke-miterlimit:10;" d="
							M168.025,464.022c-6.7-11.24-17.419-19.823-29.449-24.972c-12.03-5.149-25.316-6.988-38.392-6.474
							c-3.55,0.14-7.103,0.45-10.583,1.165c-4.988,1.024-9.765,2.863-14.516,4.695"/>
						
							<path style="fill:none;stroke:#2A2B29;stroke-width:2.4816;stroke-linecap:round;stroke-linejoin:round;stroke-miterlimit:10;" d="
							M73.788,417.496c-0.323-4.126-3.187-7.804-6.859-9.714c-3.672-1.91-8.031-2.204-12.104-1.469"/>
						
							<path style="fill:none;stroke:#2A2B29;stroke-width:2.4816;stroke-linecap:round;stroke-linejoin:round;stroke-miterlimit:10;" d="
							M190.407,408.552c-6.407-0.69-13.037,3.262-15.478,9.225"/>
					</g>
					
						<path style="fill:none;stroke:#2A2B29;stroke-width:2.4816;stroke-linecap:round;stroke-linejoin:round;stroke-miterlimit:10;" d="
						M59.907,367.228c0,0.275,0,0.55,0,0.825v11.141"/>
					
						<line style="fill:none;stroke:#2A2B29;stroke-width:2.4816;stroke-linecap:round;stroke-linejoin:round;stroke-miterlimit:10;" x1="55.574" y1="376.512" x2="55.574" y2="389.104"/>
				</g>
				
					<path style="fill:none;stroke:#2A2B29;stroke-width:2.4816;stroke-linecap:round;stroke-linejoin:round;stroke-miterlimit:10;" d="
					M231.137,395.524c-1.162,2.261-2.323,4.522-3.485,6.782"/>
				
					<path style="fill:none;stroke:#2A2B29;stroke-width:2.4816;stroke-linecap:round;stroke-linejoin:round;stroke-miterlimit:10;" d="
					M233.375,400.788c-1.537,2.198-3.228,4.289-5.056,6.252"/>
			</g>
			
				<path style="fill:none;stroke:#2A2B29;stroke-width:2.4816;stroke-linecap:round;stroke-linejoin:round;stroke-miterlimit:10;" d="
				M27.08,377.421c-2.438,15.683-1.178,31.928,3.65,47.047"/>
		</g>
		<g style="clip-path:url(#SVGID_00000116194632579823913530000003208241220221328285_);">
			<path style="fill:none;stroke:#2A2B29;stroke-width:2;stroke-linecap:round;stroke-linejoin:round;stroke-miterlimit:10;" d="
				M261.572,476.312c0.981,0,1.961,0,2.942,0h33.395"/>
			<path style="fill:none;stroke:#2A2B29;stroke-width:2;stroke-linecap:round;stroke-linejoin:round;stroke-miterlimit:10;" d="
				M278.241,487.098c0.327,0,0.654,0,0.98,0h38.253"/>
		</g>
		<g style="clip-path:url(#SVGID_00000116194632579823913530000003208241220221328285_);">
			<path style="fill:none;stroke:#2A2B29;stroke-width:2;stroke-linecap:round;stroke-linejoin:round;stroke-miterlimit:10;" d="
				M493.187,103.159c0,1.634,0,3.268,0,4.902v24.532"/>
			
				<line style="fill:none;stroke:#2A2B29;stroke-width:2;stroke-linecap:round;stroke-linejoin:round;stroke-miterlimit:10;" x1="499.708" y1="112.94" x2="499.708" y2="151.439"/>
		</g>
		<g style="clip-path:url(#SVGID_00000116194632579823913530000003208241220221328285_);">
			
				<ellipse transform="matrix(0.9732 -0.2298 0.2298 0.9732 -103.5043 20.9212)" style="fill:#F3BE48;stroke:#2A2B29;stroke-width:2;stroke-miterlimit:10;" cx="38.089" cy="454.937" rx="30.318" ry="30.318"/>
			<path style="fill:none;stroke:#2A2B29;stroke-width:2;stroke-linecap:round;stroke-miterlimit:10;" d="M26.386,437.984
				c3.078,2.346,5.789,5.171,8.007,8.341"/>
			<path style="fill:none;stroke:#2A2B29;stroke-width:2;stroke-linecap:round;stroke-miterlimit:10;" d="M44.673,449.12
				c3.284-2.543,7.402-3.99,11.555-4.058"/>
			<path style="fill:#57B793;stroke:#2A2B29;stroke-width:2;stroke-linecap:round;stroke-linejoin:round;stroke-miterlimit:10;" d="
				M35.749,458.55c1.976,0,3.747,1.385,4.26,4.204c0.295,1.624-0.008,3.296-0.435,4.89c-0.506,1.888-1.278,3.853-2.894,4.952
				c-0.747,0.508-1.635,0.746-2.531,0.746c-1.699,0-3.424-0.856-4.259-2.351c-0.689-1.233-0.792-2.711-0.684-4.119
				c0.162-2.128,0.799-4.271,2.138-5.933C32.619,459.354,34.243,458.55,35.749,458.55 M35.749,451.55
				c-3.707,0-7.3,1.822-9.858,4.999c-2.11,2.62-3.377,6.006-3.665,9.792c-0.235,3.085,0.287,5.798,1.552,8.064
				c2.045,3.663,6.019,5.938,10.371,5.938c2.348,0,4.585-0.677,6.468-1.958c3.646-2.48,5.01-6.284,5.719-8.929
				c0.557-2.078,1.124-4.86,0.561-7.954C45.813,455.549,41.333,451.55,35.749,451.55L35.749,451.55z"/>
			<path style="fill:#2A2B29;stroke:#2A2B29;stroke-width:2;stroke-linecap:round;stroke-linejoin:round;stroke-miterlimit:10;" d="
				M35.749,458.55c1.976,0,3.747,1.385,4.26,4.204c0.295,1.624-0.008,3.296-0.435,4.89c-0.506,1.888-1.278,3.853-2.894,4.952
				c-0.747,0.508-1.635,0.746-2.531,0.746c-1.699,0-3.424-0.856-4.259-2.351c-0.689-1.233-0.792-2.711-0.684-4.119
				c0.162-2.128,0.799-4.271,2.138-5.933C32.619,459.354,34.243,458.55,35.749,458.55"/>
			<path style="fill:#F8F7D9;" d="M33.132,469.378c0.03-0.118,0.065-0.244,0.155-0.325c0.115-0.103,0.285-0.107,0.439-0.102
				c0.795,0.029,1.586,0.17,2.342,0.419c0.094,0.031,0.197,0.072,0.237,0.162c0.027,0.061,0.019,0.131,0.01,0.198
				c-0.081,0.61-0.161,1.219-0.242,1.829c-0.049,0.368,0,1.335-0.333,1.575c-0.134,0.096-0.306,0.119-0.47,0.135
				c-0.982,0.095-1.992,0.057-2.927-0.26c-0.037-0.012-0.076-0.027-0.095-0.061c-0.019-0.032-0.014-0.073-0.009-0.11
				C32.418,471.64,32.836,470.547,33.132,469.378z"/>
		</g>
		<g style="clip-path:url(#SVGID_00000116194632579823913530000003208241220221328285_);">
			<g>
				
					<ellipse transform="matrix(0.2116 -0.9774 0.9774 0.2116 -170.044 301.3986)" style="fill:#E84662;stroke:#2A2B29;stroke-width:2;stroke-miterlimit:10;" cx="101.789" cy="256.095" rx="30.318" ry="30.318"/>
				<path style="fill:none;stroke:#2A2B29;stroke-width:2;stroke-linecap:round;stroke-miterlimit:10;" d="M83.746,246.154
					c3.801,0.724,7.489,2.041,10.89,3.887"/>
				<path style="fill:none;stroke:#2A2B29;stroke-width:2;stroke-linecap:round;stroke-miterlimit:10;" d="M105.082,247.951
					c1.802-3.742,4.841-6.876,8.526-8.791"/>
			</g>
			<g>
				<path style="fill:#F3BE48;stroke:#2A2B29;stroke-width:2;stroke-miterlimit:10;" d="M87.116,280.853
					c-1.596,0-3.201-0.543-4.516-1.654c-2.952-2.496-3.322-6.913-0.826-9.865c10.282-12.161,27.564-17.694,42.994-13.773
					c3.746,0.952,6.012,4.762,5.06,8.509c-0.951,3.746-4.756,6.017-8.509,5.06c-10.196-2.588-22.061,1.21-28.854,9.244
					C91.081,280.01,89.105,280.853,87.116,280.853z"/>
			</g>
			<path style="fill:none;stroke:#2A2B29;stroke-width:2;stroke-linecap:round;stroke-miterlimit:10;" d="M87.119,273.853
				c8.557-10.121,23.079-14.774,35.924-11.509"/>
			<path style="fill:#F8F7D9;stroke:#2A2B29;stroke-width:2;stroke-miterlimit:10;" d="M110.926,251.574
				c0.638-0.4,1.425-0.46,2.178-0.496c2.532-0.122,5.071-0.1,7.601,0.065c0.036,3.567-0.065,7.136-0.303,10.695
				c-1.502-0.325-3.026-0.546-4.558-0.662c-0.917-0.07-3.467,0.336-4.086-0.284C111.345,260.478,110.672,251.733,110.926,251.574z"
				/>
		</g>
		<g style="clip-path:url(#SVGID_00000116194632579823913530000003208241220221328285_);">
			<g>
				<path style="fill:#E84662;stroke:#2A2B29;stroke-width:2;stroke-miterlimit:10;" d="M50.313,258.678
					c-0.144-1.628-0.794-3.268-1.875-4.466c-8.502-10.606-13.68-13.644-13.68-13.644L29.89,253.94
					c-0.26-0.379-0.54-0.756-0.859-1.085c-12.069-15.187-13.958-13.717-13.958-13.717l-1.928,18.315
					c8.735,18.234,23.828,27.642,23.828,27.642c5.138-5.535,9.203-12.061,11.907-19.112
					C49.777,263.646,50.534,261.172,50.313,258.678z"/>
				
					<path style="fill:#57B793;stroke:#2A2B29;stroke-width:2;stroke-linecap:round;stroke-linejoin:round;stroke-miterlimit:10;" d="
					M33.365,239.751c2.333,0.91,3.732,3.439,3.953,5.933c0.221,2.494-0.537,4.967-1.433,7.305
					c-2.704,7.051-6.77,13.577-11.907,19.112c-4.237-4.375-7.891-9.315-10.834-14.647c-2.35-4.259-4.291-9.094-3.444-13.884
					c0.234-1.326,0.711-2.662,1.67-3.607c0.96-0.945,2.485-1.401,3.702-0.825c0.783,0.371,1.332,1.094,1.823,1.807
					c3.116,4.537,4.429,9.339,5.786,14.563C23.303,250.161,23.791,236.016,33.365,239.751z"/>
			</g>
			<path style="fill:none;stroke:#2A2B29;stroke-width:2;stroke-linecap:round;stroke-linejoin:round;stroke-miterlimit:10;" d="
				M41.767,264.057c6.206,4.656,12.068,9.771,17.521,15.289"/>
			<path style="fill:none;stroke:#2A2B29;stroke-width:2;stroke-linecap:round;stroke-linejoin:round;stroke-miterlimit:10;" d="
				M39.328,271.151c5.981,5.844,11.848,11.806,17.596,17.88"/>
		</g>
		<g style="clip-path:url(#SVGID_00000116194632579823913530000003208241220221328285_);">
			<g>
				<path style="fill:#E84662;stroke:#2A2B29;stroke-width:2;stroke-miterlimit:10;" d="M182.487,480.834
					c0.144-1.628,0.794-3.268,1.875-4.466c8.502-10.606,13.68-13.643,13.68-13.643l4.869,13.371c0.26-0.379,0.54-0.756,0.859-1.085
					c12.069-15.187,13.958-13.717,13.958-13.717l1.928,18.315c-8.735,18.234-23.828,27.642-23.828,27.642
					c-5.138-5.535-9.204-12.061-11.907-19.112C183.024,485.801,182.266,483.328,182.487,480.834z"/>
				
					<path style="fill:#57B793;stroke:#2A2B29;stroke-width:2;stroke-linecap:round;stroke-linejoin:round;stroke-miterlimit:10;" d="
					M199.435,461.906c-2.332,0.91-3.732,3.438-3.953,5.932c-0.221,2.494,0.537,4.967,1.433,7.305
					c2.704,7.051,6.77,13.577,11.907,19.112c4.237-4.375,7.891-9.315,10.834-14.648c2.35-4.259,4.291-9.094,3.444-13.884
					c-0.234-1.326-0.71-2.662-1.67-3.607c-0.96-0.945-2.485-1.401-3.702-0.824c-0.783,0.371-1.332,1.094-1.823,1.807
					c-3.116,4.538-4.428,9.339-5.786,14.563C209.497,472.316,209.01,458.171,199.435,461.906z"/>
			</g>
			<path style="fill:none;stroke:#2A2B29;stroke-width:2;stroke-linecap:round;stroke-linejoin:round;stroke-miterlimit:10;" d="
				M191.033,486.212c-6.206,4.656-12.068,9.771-17.521,15.289"/>
			<path style="fill:none;stroke:#2A2B29;stroke-width:2;stroke-linecap:round;stroke-linejoin:round;stroke-miterlimit:10;" d="
				M193.472,493.306c-5.981,5.844-11.848,11.806-17.596,17.88"/>
		</g>
		<g style="clip-path:url(#SVGID_00000116194632579823913530000003208241220221328285_);">
			<g>
				<path style="fill:#F3BE48;stroke:#2A2B29;stroke-width:2;stroke-miterlimit:10;" d="M462.172,379.205
					c-0.144-1.628-0.794-3.268-1.875-4.466c-8.502-10.606-13.679-13.643-13.679-13.643l-4.869,13.372
					c-0.26-0.379-0.54-0.756-0.859-1.085c-12.069-15.187-13.958-13.717-13.958-13.717l-1.928,18.315
					c8.735,18.234,23.828,27.642,23.828,27.642c5.138-5.535,9.204-12.061,11.907-19.112
					C461.636,384.172,462.393,381.699,462.172,379.205z"/>
				<path style="fill:#E84662;stroke:#2A2B29;stroke-width:2;stroke-miterlimit:10;" d="M445.224,360.278
					c2.333,0.91,3.732,3.439,3.954,5.933c0.221,2.494-0.537,4.967-1.433,7.305c-2.704,7.051-6.77,13.577-11.907,19.112
					c-4.237-4.375-7.891-9.315-10.834-14.647c-2.35-4.259-4.291-9.094-3.444-13.884c0.234-1.326,0.71-2.662,1.67-3.607
					c0.96-0.945,2.485-1.401,3.702-0.824c0.783,0.371,1.332,1.093,1.823,1.807c3.116,4.538,4.429,9.339,5.786,14.563
					C435.162,370.688,435.649,356.542,445.224,360.278z"/>
			</g>
			<path style="fill:none;stroke:#2A2B29;stroke-width:2;stroke-linecap:round;stroke-linejoin:round;stroke-miterlimit:10;" d="
				M453.01,386.499c0,13.523,0,27.047,0,40.57"/>
			<path style="fill:none;stroke:#2A2B29;stroke-width:2;stroke-linecap:round;stroke-linejoin:round;stroke-miterlimit:10;" d="
				M446.472,394.767c0,0.123,0,0.245,0,0.368v22.433"/>
		</g>
		<g style="clip-path:url(#SVGID_00000116194632579823913530000003208241220221328285_);">
			<path style="fill:#57B793;stroke:#2A2B29;stroke-width:2;stroke-linecap:round;stroke-linejoin:round;stroke-miterlimit:10;" d="
				M276.726,373.852c0.144-1.628,0.794-3.268,1.875-4.466c8.502-10.606,13.68-13.644,13.68-13.644l4.869,13.372
				c0.26-0.379,0.54-0.756,0.859-1.085c12.069-15.187,13.958-13.717,13.958-13.717l1.928,18.315
				c-8.735,18.234-23.828,27.642-23.828,27.642c-5.138-5.535-9.203-12.061-11.907-19.112
				C277.262,378.819,276.505,376.346,276.726,373.852z"/>
			<path style="fill:#E84662;stroke:#2A2B29;stroke-width:2;stroke-miterlimit:10;" d="M293.674,354.924
				c-2.333,0.91-3.732,3.439-3.954,5.933c-0.221,2.494,0.537,4.967,1.433,7.305c2.704,7.051,6.77,13.577,11.907,19.112
				c4.237-4.375,7.891-9.315,10.834-14.648c2.35-4.259,4.291-9.094,3.444-13.884c-0.234-1.326-0.71-2.662-1.67-3.607
				c-0.96-0.945-2.485-1.401-3.702-0.824c-0.783,0.371-1.332,1.094-1.823,1.807c-3.116,4.538-4.428,9.339-5.785,14.563
				C303.736,365.334,303.249,351.189,293.674,354.924z"/>
		</g>
		<g style="clip-path:url(#SVGID_00000116194632579823913530000003208241220221328285_);">
			<g>
				<path style="fill:#E84662;stroke:#2A2B29;stroke-width:2;stroke-miterlimit:10;" d="M568.862,280.653
					c0.144-1.628,0.794-3.268,1.875-4.466c8.502-10.606,13.68-13.643,13.68-13.643l4.869,13.371c0.26-0.379,0.54-0.756,0.859-1.085
					c12.069-15.187,13.958-13.717,13.958-13.717l1.928,18.315c-8.735,18.234-23.828,27.642-23.828,27.642
					c-5.138-5.535-9.203-12.061-11.907-19.112C569.399,285.62,568.641,283.147,568.862,280.653z"/>
				<path style="fill:#F3BE48;stroke:#2A2B29;stroke-width:2;stroke-miterlimit:10;" d="M585.811,261.725
					c-2.333,0.91-3.732,3.439-3.953,5.933c-0.221,2.494,0.537,4.967,1.433,7.305c2.704,7.051,6.77,13.577,11.907,19.112
					c4.237-4.375,7.891-9.315,10.834-14.647c2.35-4.259,4.291-9.094,3.444-13.884c-0.234-1.326-0.71-2.662-1.67-3.607
					c-0.96-0.945-2.485-1.401-3.702-0.824c-0.783,0.371-1.332,1.093-1.823,1.807c-3.116,4.538-4.429,9.339-5.786,14.563
					C595.872,272.135,595.385,257.99,585.811,261.725z"/>
			</g>
			<path style="fill:none;stroke:#2A2B29;stroke-width:2;stroke-linecap:round;stroke-linejoin:round;stroke-miterlimit:10;" d="
				M579.308,290.461c-4.619,4.469-9.238,8.938-13.857,13.407"/>
			<path style="fill:none;stroke:#2A2B29;stroke-width:2;stroke-linecap:round;stroke-linejoin:round;stroke-miterlimit:10;" d="
				M578.498,280.114c-4.727,4.508-9.454,9.017-14.18,13.525"/>
		</g>
	</g>
</g>
</svg>
