<svg width="24" height="25" viewBox="0 0 24 25" fill="none" xmlns="http://www.w3.org/2000/svg">
<path fill-rule="evenodd" clip-rule="evenodd" d="M5 10.8227C5 7.04247 8.2111 3.83331 11.9894 3.83331C15.8595 3.83331 19 7.03724 19 10.8227C19 15.3877 15.2071 19.6663 13.2052 21.6066C12.6734 22.1221 12.4075 22.3798 12.0014 22.3791C11.5953 22.3784 11.33 22.1194 10.7994 21.6015C8.79868 19.6486 5 15.3452 5 10.8227ZM9.45433 10.8217C9.45433 12.2202 10.5906 13.3565 11.9891 13.3565C13.3876 13.3565 14.5239 12.2202 14.5239 10.8217C14.5239 9.42322 13.3876 8.28693 11.9891 8.28693C10.5906 8.28693 9.45433 9.42322 9.45433 10.8217Z" fill="#1976D2"/>
</svg>
