<svg width="28" height="28" viewBox="0 0 28 28" fill="none" xmlns="http://www.w3.org/2000/svg">
<path d="M9.45382 8.51125H6.67521C6.55293 8.51091 6.43302 8.47752 6.32821 8.4146C6.22341 8.35168 6.13763 8.26159 6.07997 8.1539C6.02232 8.04621 5.99495 7.92493 6.00077 7.80296C6.00659 7.68098 6.04538 7.56285 6.11302 7.46112L10.2466 1.29931C10.3086 1.20718 10.3923 1.13169 10.4904 1.0795C10.5885 1.0273 10.698 1 10.8091 1C10.9203 1 11.0298 1.0273 11.1279 1.0795C11.226 1.13169 11.3097 1.20718 11.3717 1.29931L15.5037 7.45951C15.5716 7.56118 15.6106 7.67935 15.6166 7.80143C15.6225 7.92351 15.5952 8.04492 15.5375 8.15271C15.4798 8.2605 15.3939 8.35062 15.2889 8.41348C15.1839 8.47634 15.0639 8.50957 14.9415 8.50963H12.1629V14.6593C11.0981 15.0409 10.1605 15.7104 9.45463 16.5932L9.45382 8.51125ZM26.415 16.4445L20.2447 12.3167C20.1425 12.2493 20.0238 12.2108 19.9014 12.2053C19.7791 12.1997 19.6575 12.2275 19.5496 12.2855C19.4417 12.3435 19.3516 12.4296 19.2888 12.5347C19.226 12.6397 19.193 12.7598 19.1931 12.8822V15.6577H14.2361C12.9681 15.6588 11.7523 16.1623 10.8557 17.0577C9.95908 17.9531 9.45489 19.1671 9.45382 20.4334V25.411C9.45382 25.7696 9.59648 26.1136 9.85043 26.3672C10.1044 26.6208 10.4488 26.7632 10.8079 26.7632C11.1671 26.7632 11.5115 26.6208 11.7654 26.3672C12.0194 26.1136 12.162 25.7696 12.162 25.411V20.4277C12.1629 19.8789 12.3816 19.3528 12.7702 18.9647C13.1589 18.5766 13.6857 18.3582 14.2353 18.3574H19.189V21.1297C19.1889 21.2521 19.222 21.3721 19.2848 21.4772C19.3475 21.5823 19.4377 21.6684 19.5455 21.7264C19.6534 21.7844 19.775 21.8121 19.8974 21.8066C20.0198 21.8011 20.1384 21.7626 20.2406 21.6952L26.411 17.5674C26.5033 17.5057 26.5791 17.4224 26.6316 17.3247C26.6841 17.227 26.7117 17.1179 26.7121 17.007C26.7125 16.8961 26.6857 16.7868 26.6339 16.6888C26.582 16.5907 26.5069 16.5068 26.415 16.4445Z" fill="white"/>
</svg>
