<svg width="28" height="28" viewBox="0 0 28 28" fill="none" xmlns="http://www.w3.org/2000/svg">
<path d="M19.9118 16.5209C21.4245 16.5209 22.6508 15.2946 22.6508 13.7819C22.6508 12.2692 21.4245 11.043 19.9118 11.043C18.3991 11.043 17.1729 12.2692 17.1729 13.7819C17.1729 15.2946 18.3991 16.5209 19.9118 16.5209Z" stroke="#1976D2" stroke-width="2" stroke-linejoin="round"/>
<path d="M9.73895 9.4779C11.2516 9.4779 12.4779 8.25163 12.4779 6.73895C12.4779 5.22627 11.2516 4 9.73895 4C8.22627 4 7 5.22627 7 6.73895C7 8.25163 8.22627 9.4779 9.73895 9.4779Z" stroke="#1976D2" stroke-width="2" stroke-linejoin="round"/>
<path d="M9.73895 23.5638C11.2516 23.5638 12.4779 22.3376 12.4779 20.8249C12.4779 19.3122 11.2516 18.0859 9.73895 18.0859C8.22627 18.0859 7 19.3122 7 20.8249C7 22.3376 8.22627 23.5638 9.73895 23.5638Z" stroke="#1976D2" stroke-width="2" stroke-linejoin="round"/>
<path d="M12 8.5L17.5 12.5M12 19.5L18 15.5" stroke="#1976D2" stroke-width="2"/>
</svg>
