<svg width="10" height="10" viewBox="0 0 10 10" fill="none" xmlns="http://www.w3.org/2000/svg">
<path d="M5.50678 0.345513L6.55997 2.7532C6.59971 2.84335 6.66099 2.92129 6.73788 2.97954C6.81478 3.0378 6.90473 3.07442 6.99907 3.08586L9.51488 3.38962C9.61955 3.40309 9.71835 3.44759 9.79961 3.51784C9.88088 3.58809 9.94119 3.68117 9.97347 3.78609C10.0058 3.89101 10.0086 4.00338 9.98178 4.10996C9.95492 4.21654 9.89946 4.31285 9.82192 4.38754L7.95712 6.17915C7.88774 6.24588 7.83582 6.33008 7.80644 6.42371C7.77705 6.51733 7.77117 6.61725 7.78926 6.71396L8.29077 9.30774C8.31158 9.41611 8.30218 9.52845 8.26372 9.63141C8.22526 9.73438 8.15931 9.82365 8.07375 9.88863C7.98819 9.95361 7.8866 9.99155 7.78101 9.99798C7.67542 10.0044 7.5703 9.97905 7.47809 9.9249L5.27139 8.62533C5.18866 8.5764 5.09521 8.55068 5.00015 8.55068C4.90509 8.55068 4.81163 8.5764 4.7289 8.62533L2.52326 9.9249C2.4311 9.97953 2.32582 10.0053 2.22003 9.99909C2.11424 9.99287 2.01244 9.95493 1.92673 9.88984C1.84102 9.82475 1.77502 9.73526 1.7367 9.63203C1.69837 9.52881 1.68932 9.41621 1.71058 9.30774L2.2111 6.71396C2.22941 6.61735 2.22369 6.51744 2.19448 6.4238C2.16527 6.33017 2.11352 6.24593 2.04424 6.17915L0.179436 4.38754C0.10147 4.31304 0.0455582 4.21673 0.0184502 4.11002C-0.00865788 4.00332 -0.00583018 3.89073 0.0265089 3.78563C0.0588479 3.68053 0.119386 3.58732 0.200926 3.51712C0.282466 3.44692 0.381573 3.40267 0.486478 3.38962L3.00228 3.08586C3.09669 3.07462 3.18667 3.03808 3.2636 2.9798C3.34052 2.92152 3.40174 2.84347 3.44132 2.7532L4.49457 0.345513C4.53771 0.242771 4.60853 0.155402 4.69841 0.094041C4.7883 0.0326797 4.89328 0 5.00065 0C5.10801 0 5.21306 0.0326797 5.30294 0.094041C5.39282 0.155402 5.46365 0.242771 5.50678 0.345513Z" fill="#B3B3B3" fill-opacity="0.35"/>
</svg>
