<svg width="24" height="25" viewBox="0 0 24 25" fill="none" xmlns="http://www.w3.org/2000/svg">
<path d="M12 4.15043C7.19549 4.15043 3.31714 8.02878 3.31714 12.8333C3.31714 17.6378 7.19549 21.5162 12 21.5162C16.8045 21.5162 20.6829 17.6378 20.6829 12.8333C20.6829 8.02878 16.8045 4.15043 12 4.15043ZM19.0621 11.6756H18.9463C18.7148 11.6756 18.4832 11.6756 18.2517 11.7335C17.9622 11.7914 17.7307 11.9071 17.4992 12.0808C17.4413 12.1387 17.3834 12.1966 17.2676 12.2544C17.1518 12.3123 17.0361 12.3702 16.9203 12.4281C16.8045 12.486 16.6888 12.486 16.573 12.6018C16.5151 12.6596 16.4572 12.7175 16.4572 12.7754C16.4572 12.8333 16.4572 12.8912 16.3993 12.9491C16.3414 13.0648 16.2836 13.1227 16.1678 13.2385C16.1099 13.2964 16.052 13.3543 16.052 13.4122C15.8205 13.7595 15.8784 14.1068 16.1678 14.3383C16.1678 14.3383 16.1678 14.3383 16.2257 14.3962C16.4572 14.5699 16.6309 14.7435 16.8045 14.9172C16.9203 15.033 17.0361 15.0908 17.2097 15.033C17.3255 14.9751 17.4413 14.9172 17.557 14.9172C17.6149 14.9172 17.6728 14.8593 17.7307 14.8014C17.8465 14.7435 17.9044 14.8014 17.9622 14.8593C18.078 15.033 18.1359 15.2066 18.2517 15.3224C18.2517 15.3803 18.2517 15.3803 18.2517 15.4382C18.1938 15.496 18.1938 15.5539 18.1359 15.6118C17.9622 15.8434 17.9044 16.0749 17.9622 16.3643C17.9622 16.4222 18.0201 16.538 18.0201 16.5959C18.0201 16.6538 18.0201 16.7695 18.0201 16.8274C18.0201 16.8853 17.9622 16.9432 17.9622 17.059C18.0201 17.0011 18.078 17.0011 18.078 16.9432C18.078 16.9432 18.078 17.0011 18.0201 17.0011C17.2676 18.1009 16.3414 18.9692 15.1837 19.5481C14.4312 19.9533 13.6208 20.1848 12.7525 20.2427C10.5529 20.4742 8.64263 19.8375 7.07972 18.3324C5.922 17.2326 5.16948 15.9012 4.82217 14.3383C4.64851 13.6437 4.64851 12.8912 4.64851 12.1387C4.7064 11.1546 4.99583 10.2284 5.40103 9.36015C5.40103 9.36015 5.40103 9.30226 5.45891 9.30226V9.36015C5.5168 9.53381 5.69046 9.64958 5.80623 9.76535C5.86411 9.82324 5.97989 9.88112 6.03777 9.93901C6.26932 10.1706 6.3272 10.4021 6.21143 10.6915C6.15354 10.9231 6.15354 11.0967 6.15354 11.3283C6.21143 11.6177 6.26932 11.8492 6.44297 12.0808C6.61663 12.3123 6.84817 12.5439 7.07972 12.7175C7.19549 12.7754 7.25337 12.8333 7.42703 12.8333C7.36915 12.6596 7.31126 12.5439 7.25337 12.3702C7.31126 12.4281 7.36915 12.486 7.42703 12.5439C7.5428 12.6596 7.65858 12.7754 7.77435 12.8912C7.83223 12.9491 7.89012 13.0648 7.89012 13.1806C7.83223 13.2964 7.948 13.47 8.00589 13.5858C8.06378 13.6437 8.06378 13.7595 8.12166 13.8174C8.17955 13.8752 8.23743 13.8752 8.3532 13.9331C8.52686 14.0489 8.64263 14.1647 8.7584 14.3383C9.04783 14.7435 9.39515 15.033 9.80035 15.3224C9.85824 15.3803 9.91612 15.4382 9.97401 15.4382C10.1477 15.5539 10.3792 15.6118 10.6108 15.496C10.6686 15.4382 10.7844 15.4382 10.9002 15.4382C11.016 15.4382 11.016 15.496 11.0738 15.5539C11.1317 15.6697 11.1317 15.7855 11.1896 15.9012C11.0738 15.9012 11.016 15.9591 10.9581 15.9591C10.6686 16.0749 10.3213 16.1907 10.0898 16.3643C9.68458 16.6538 9.51092 17.0011 9.62669 17.522C9.68458 17.6378 9.68458 17.7536 9.74246 17.8694C9.80035 18.043 9.91612 18.1009 10.0319 18.1009C10.2056 18.1009 10.2056 18.1009 10.2634 18.2746C10.3792 18.6219 10.4371 18.9113 10.5529 19.2586C10.6108 19.4902 10.7844 19.6638 10.9002 19.7796L10.9581 19.8375C11.0738 19.8375 11.1896 19.8954 11.2475 19.9533C11.4212 20.1269 11.5948 20.1848 11.8264 20.1848C12.0579 20.1848 12.2894 20.1848 12.521 20.2427C12.6946 20.2427 12.8683 20.2427 13.042 20.1269C13.0998 20.069 13.1577 20.069 13.2156 20.0111C13.3314 19.8954 13.4472 19.7796 13.505 19.6638C13.6208 19.5481 13.6208 19.4323 13.6208 19.3165C13.5629 19.085 13.6208 18.8534 13.7366 18.6798C13.7945 18.564 13.9102 18.3903 14.026 18.3324C14.1418 18.2746 14.1997 18.1009 14.2576 17.9851C14.2576 17.8115 14.3733 17.6957 14.4891 17.6378C14.547 17.5799 14.6628 17.522 14.7206 17.4642C14.8364 17.3484 14.9522 17.2326 15.0101 17.059C15.068 16.9432 15.0101 16.8274 14.8943 16.7695C14.8364 16.7695 14.8364 16.7116 14.7785 16.7116C14.4312 16.6538 14.2576 16.4222 14.1418 16.1328C14.1418 16.0749 14.0839 16.0749 14.026 16.0749C13.7945 16.0749 13.5629 16.0749 13.2735 16.1328C13.042 16.1328 12.8104 16.1907 12.5789 16.0749C12.4631 16.017 12.4052 16.017 12.2894 16.017C12.1737 16.017 12.0579 15.9591 11.9421 15.9591C11.7685 15.9012 11.6527 15.8434 11.479 15.9012H11.4212C11.3633 15.7855 11.3054 15.7276 11.3633 15.6118C11.4212 15.496 11.479 15.4382 11.5369 15.3224C11.5948 15.2645 11.5948 15.1487 11.5948 15.0908C11.5948 15.033 11.5948 14.9751 11.5369 14.9751C11.5369 14.7435 11.2475 14.6278 11.0738 14.6856C10.9581 14.7435 10.8423 14.8014 10.7844 14.8014C10.6108 14.8593 10.495 14.9751 10.3213 15.033C10.1477 15.0908 9.97401 14.9751 9.91612 14.8014C9.85824 14.512 9.74246 14.2226 9.51092 14.0489C9.33726 13.8752 9.16361 13.6437 9.04783 13.47C8.93206 13.2964 8.93206 13.007 9.10572 12.8912C9.22149 12.7754 9.39515 12.7175 9.56881 12.6018C9.62669 12.5439 9.68458 12.6018 9.74246 12.6018C9.80035 12.6596 9.85824 12.6596 9.85824 12.7175C10.0319 12.8912 10.2634 13.007 10.495 13.1227C10.6686 13.1806 10.8423 13.3543 10.9581 13.47C11.016 13.5858 11.1317 13.7016 11.2475 13.8174C11.3054 13.8752 11.3633 13.9331 11.3633 13.991C11.4212 14.1068 11.479 14.2226 11.5369 14.2804C11.7106 14.3962 11.8264 14.3383 11.8842 14.1647C11.8842 13.991 11.8842 13.8174 11.8842 13.6437C11.8842 13.4122 11.8264 13.1806 11.7685 12.9491C11.7106 12.6596 11.8264 12.4281 12.0579 12.2544C12.1737 12.1387 12.3473 12.0229 12.4631 11.9071C12.521 11.8492 12.5789 11.8492 12.5789 11.7914C12.7525 11.6756 12.8104 11.5019 12.8104 11.2704C12.8104 11.2125 12.8104 11.2125 12.8104 11.1546C12.8104 10.981 12.8683 10.981 13.042 10.9231C13.1577 10.9231 13.2735 10.8652 13.3893 10.7494C13.4472 10.6915 13.5629 10.6336 13.6208 10.5179C13.505 10.46 13.3314 10.4021 13.2156 10.4021C13.2735 10.3442 13.3314 10.2863 13.3893 10.2284C13.4472 10.2284 13.4472 10.1706 13.4472 10.1706V9.99689C13.505 10.0548 13.5629 10.1127 13.6208 10.1127C13.6787 10.1706 13.7366 10.2284 13.8524 10.2863C13.9102 10.3442 14.026 10.3442 14.1418 10.2863C14.2576 10.2284 14.2576 10.1127 14.2576 10.0548C14.2576 9.99689 14.2576 9.93901 14.2576 9.88112C14.1997 9.76535 14.1997 9.64958 14.2576 9.53381C14.3154 9.36015 14.3154 9.24438 14.3154 9.07072C14.2576 8.89706 14.1997 8.78129 14.026 8.66552C13.9102 8.60763 13.7366 8.54975 13.6208 8.49186C13.505 8.43398 13.4472 8.43398 13.3314 8.37609C13.1577 8.3182 13.042 8.26032 12.8683 8.14455C12.8104 8.14455 12.8104 8.08666 12.7525 8.08666C12.6368 8.02878 12.521 8.02878 12.4052 8.14455C12.3473 8.20243 12.2894 8.26032 12.2316 8.31821C12.1737 8.37609 12.1737 8.43398 12.1158 8.43398C12.0579 8.54975 12 8.60763 11.8264 8.54975C11.6527 8.49186 11.5369 8.43398 11.3633 8.37609C11.2475 8.3182 11.0738 8.26032 10.9581 8.26032C10.7844 8.20243 10.6686 8.14455 10.5529 8.02878C10.4371 7.913 10.2634 7.79723 10.1477 7.68146C10.0319 7.62358 9.97401 7.5078 9.97401 7.39203C9.97401 7.27626 10.0319 7.21837 10.0898 7.16049C10.2634 7.04472 10.5529 7.1026 10.6686 7.27626C10.7265 7.33415 10.7844 7.39203 10.8423 7.5078C11.016 7.68146 11.1896 7.79723 11.479 7.79723C11.5948 7.79723 11.7685 7.79723 11.8842 7.79723C11.9421 7.56569 11.9421 7.39203 11.8264 7.21837C11.7106 7.1026 11.6527 6.98683 11.5369 6.87106C11.4212 6.75529 11.3054 6.58163 11.3054 6.40797C11.3054 6.35009 11.3054 6.2922 11.3633 6.23432C11.4212 6.17643 11.4212 6.11854 11.4212 6.06066C11.4212 6.00277 11.4212 5.94489 11.4212 5.94489C11.4212 5.77123 11.4212 5.59757 11.3633 5.36603V5.30814H11.6527L11.5948 5.25026C11.7685 5.25026 11.9421 5.25026 12.1158 5.30814H12.1737C12.2894 5.30814 12.2894 5.30814 12.3473 5.42391C12.4052 5.59757 12.4052 5.71334 12.4052 5.887C12.4052 6.06066 12.521 6.23432 12.6368 6.2922C12.9262 6.40797 12.9841 6.6974 12.9841 6.92895C12.9841 7.1026 12.9841 7.21837 13.042 7.39203C13.0998 7.56569 13.1577 7.73935 13.3893 7.73935C13.4472 7.73935 13.5629 7.73935 13.6787 7.68146C13.9102 7.56569 14.1418 7.44992 14.2576 7.21837C14.3154 7.16049 14.3154 7.04472 14.3733 6.98683C14.4891 6.63952 14.6628 6.52374 15.068 6.58163C15.2416 6.58163 15.4153 6.63952 15.531 6.63952C15.6468 6.63952 15.7626 6.58163 15.8784 6.52375C15.9362 6.52375 15.9362 6.52375 15.9941 6.52375C16.2257 6.6974 16.4572 6.92895 16.6888 7.1026C16.6888 7.1026 16.7466 7.16049 16.6888 7.16049C16.6309 7.27626 16.6309 7.44992 16.573 7.56569C16.5151 7.68146 16.4572 7.85512 16.3414 7.913C16.2257 8.02878 16.1099 8.08666 16.052 8.26032L15.9941 8.31821C15.9362 8.31821 15.9362 8.37609 15.9362 8.43398C15.9362 8.54975 15.9362 8.54975 16.052 8.54975C16.2257 8.54975 16.3993 8.49186 16.573 8.49186C16.6888 8.49186 16.8045 8.49186 16.9203 8.49186C17.094 8.49186 17.1518 8.60763 17.094 8.78129C16.9782 9.07072 16.8624 9.30226 16.6309 9.41804C16.5151 9.47592 16.4572 9.53381 16.3414 9.59169C16.2257 9.64958 16.1678 9.70746 16.1099 9.76535C15.9941 9.93901 15.9941 10.1127 16.1678 10.2284C16.2836 10.3442 16.4572 10.4021 16.6309 10.46C16.9203 10.5179 17.1518 10.46 17.3834 10.2863C17.4992 10.1706 17.6149 10.1127 17.7886 9.99689C17.8465 9.93901 17.9623 9.88112 18.0201 9.82324L18.078 9.76535C18.1359 9.76535 18.2517 9.76535 18.3096 9.76535C18.3096 9.76535 18.3675 9.76535 18.3675 9.82324C18.599 10.1706 18.7727 10.5179 18.9463 10.9231C19.12 11.2125 19.12 11.5019 19.0621 11.6756Z" fill="#1976D2"/>
</svg>
